<?xml version="1.0" encoding="UTF-8" standalone="no"?>
<!-- Created with Inkscape (http://www.inkscape.org/) -->

<svg
   width="210mm"
   height="297mm"
   viewBox="0 0 210 297"
   version="1.1"
   id="svg5"
   inkscape:version="1.1.2 (0a00cf5339, 2022-02-04)"
   sodipodi:docname="home.svg"
   xmlns:inkscape="http://www.inkscape.org/namespaces/inkscape"
   xmlns:sodipodi="http://sodipodi.sourceforge.net/DTD/sodipodi-0.dtd"
   xmlns="http://www.w3.org/2000/svg"
   xmlns:svg="http://www.w3.org/2000/svg">
  <sodipodi:namedview
     id="namedview7"
     pagecolor="#ffffff"
     bordercolor="#666666"
     borderopacity="1.0"
     inkscape:pageshadow="2"
     inkscape:pageopacity="0.0"
     inkscape:pagecheckerboard="0"
     inkscape:document-units="mm"
     showgrid="false"
     inkscape:zoom="0.92470539"
     inkscape:cx="227.09936"
     inkscape:cy="283.33348"
     inkscape:window-width="1360"
     inkscape:window-height="739"
     inkscape:window-x="1366"
     inkscape:window-y="0"
     inkscape:window-maximized="1"
     inkscape:current-layer="layer1"
     inkscape:snap-global="true"
     inkscape:snap-bbox="false"
     inkscape:snap-nodes="true" />
  <defs
     id="defs2">
    <inkscape:path-effect
       effect="skeletal"
       id="path-effect33900"
       is_visible="true"
       lpeversion="1"
       pattern="m -1.9992926,33.33137 h 0.99999997"
       copytype="repeated"
       prop_scale="1"
       scale_y_rel="false"
       spacing="0"
       normal_offset="0"
       tang_offset="0"
       prop_units="false"
       vertical_pattern="false"
       hide_knot="false"
       fuse_tolerance="0" />
    <inkscape:path-effect
       effect="skeletal"
       id="path-effect32713"
       is_visible="true"
       lpeversion="1"
       pattern="M 0,0 H 1"
       copytype="repeated"
       prop_scale="13.4"
       scale_y_rel="false"
       spacing="0"
       normal_offset="0"
       tang_offset="0"
       prop_units="false"
       vertical_pattern="false"
       hide_knot="false"
       fuse_tolerance="0" />
    <inkscape:path-effect
       effect="skeletal"
       id="path-effect32335"
       is_visible="true"
       lpeversion="1"
       pattern="M 0,0 H 1"
       copytype="repeated_stretched"
       prop_scale="13.4"
       scale_y_rel="false"
       spacing="0"
       normal_offset="0"
       tang_offset="0"
       prop_units="false"
       vertical_pattern="false"
       hide_knot="false"
       fuse_tolerance="0" />
    <rect
       x="-14.150939"
       y="428.90422"
       width="493.77055"
       height="233.78995"
       id="rect1486" />
  </defs>
  <g
     inkscape:label="Layer 1"
     inkscape:groupmode="layer"
     id="layer1">
    <text
       xml:space="preserve"
       transform="matrix(0.26458333,0,0,0.26785714,30.10223,-94.152679)"
       id="text1484"
       style="font-style:normal;font-variant:normal;font-weight:normal;font-stretch:normal;font-size:96px;line-height:1.25;font-family:Ignite;-inkscape-font-specification:'Ignite, Normal';font-variant-ligatures:normal;font-variant-caps:normal;font-variant-numeric:normal;font-variant-east-asian:normal;letter-spacing:9.9387px;word-spacing:0px;white-space:pre;shape-inside:url(#rect1486);fill:#000000;fill-opacity:1;stroke:none"
       inkscape:export-filename="/home/mainadm/Development/Projects/staticweb/quasarweb/charge.png"
       inkscape:export-xdpi="96"
       inkscape:export-ydpi="96"><tspan
         x="-14.150391"
         y="530.70334"
         id="tspan81892">Charge</tspan></text>
    <rect
       style="fill:#9b009b;fill-opacity:1;stroke:none;stroke-width:0.300352;-inkscape-stroke:none;stop-color:#000000"
       id="rect10724"
       width="17.403391"
       height="15.671251"
       x="17.64584"
       y="5.2671294"
       ry="0.25772426" />
    <rect
       style="fill:#ff00ff;fill-opacity:1;stroke:none;stroke-width:0.300352;-inkscape-stroke:none;stop-color:#000000"
       id="rect10806"
       width="17.403391"
       height="15.671251"
       x="44.830425"
       y="5.2671294"
       ry="0.25772426" />
    <rect
       style="fill:#ff66ff;fill-opacity:1;stroke:none;stroke-width:0.300352;-inkscape-stroke:none;stop-color:#000000"
       id="rect10808"
       width="17.403391"
       height="15.671251"
       x="71.078163"
       y="5.2671294"
       ry="0.25772426" />
    <path
       id="path28059"
       style="fill:none;stroke:#000000;stroke-width:0.353602;stop-color:#000000"
       d="m 29.873474,180.502 c 0.04682,-0.33003 0.106462,-0.65706 0.178186,-0.98083 0.07173,-0.32377 0.155535,-0.64428 0.250702,-0.96124 0.09517,-0.31697 0.201691,-0.6304 0.318841,-0.94001 0.11715,-0.30962 0.244927,-0.61542 0.382601,-0.91714 0.137674,-0.30172 0.285245,-0.59935 0.441984,-0.89263 0.156739,-0.29327 0.322646,-0.58219 0.49699,-0.86647 0.174345,-0.28429 0.357127,-0.56394 0.547618,-0.83869 0.190491,-0.27476 0.38869,-0.5446 0.593868,-0.80927 0.205178,-0.26467 0.417335,-0.52416 0.635741,-0.7782 0.218406,-0.25404 0.443061,-0.50263 0.673236,-0.7455 0.230175,-0.24287 0.46587,-0.48001 0.706354,-0.71116 0.03713,-0.0357 0.07438,-0.0712 0.111741,-0.10664 0.204587,-0.19389 0.412111,-0.38431 0.622383,-0.57146 0.24867,-0.22131 0.501183,-0.43803 0.757227,-0.65042 0.256043,-0.2124 0.515617,-0.42047 0.778408,-0.62451 0.262792,-0.20403 0.5288,-0.40402 0.797714,-0.60024 0.268913,-0.19622 0.540731,-0.38867 0.815141,-0.57764 0.274409,-0.18896 0.55141,-0.37444 0.83069,-0.5567 0.27928,-0.18226 0.560839,-0.36131 0.844364,-0.53743 0.283524,-0.17611 0.569014,-0.34929 0.856158,-0.51981 0.287143,-0.17052 0.575939,-0.33838 0.866075,-0.50385 0.290136,-0.16548 0.581613,-0.32858 0.874116,-0.48957 0.292503,-0.16099 0.586034,-0.31988 0.880278,-0.47694 0.117573,-0.0627 0.23526,-0.12522 0.353041,-0.18741 0.18043,-0.0866 0.361084,-0.17261 0.54196,-0.25799 0.301246,-0.14221 0.603107,-0.28273 0.905571,-0.42157 0.302464,-0.13883 0.605532,-0.27599 0.909191,-0.41149 0.30366,-0.13549 0.607912,-0.26933 0.912745,-0.40152 0.304833,-0.13219 0.610247,-0.26273 0.916232,-0.39165 0.305984,-0.12891 0.612538,-0.2562 0.919652,-0.38187 0.307113,-0.12567 0.614786,-0.24973 0.923006,-0.3722 0.30822,-0.12246 0.616989,-0.24333 0.926294,-0.36261 0.309305,-0.11929 0.619147,-0.237 0.929515,-0.35314 0.310368,-0.11614 0.621262,-0.23072 0.93267,-0.34375 0.311408,-0.11304 0.623332,-0.22452 0.935758,-0.33447 0.312427,-0.10996 0.625357,-0.21838 0.93878,-0.32529 0.313423,-0.10691 0.627339,-0.2123 0.941736,-0.31619 0.314397,-0.1039 0.629275,-0.20629 0.944624,-0.30721 0.315349,-0.10091 0.631169,-0.20035 0.947447,-0.29831 0.316279,-0.098 0.633017,-0.19447 0.950203,-0.28952 0.317187,-0.0951 0.634821,-0.18865 0.952893,-0.28082 0.318072,-0.0922 0.636581,-0.18291 0.955516,-0.27223 0.318935,-0.0893 0.638296,-0.17722 0.958073,-0.26372 0.319776,-0.0865 0.639967,-0.17161 0.960562,-0.25533 0.320596,-0.0837 0.641595,-0.16605 0.962987,-0.24702 0.321392,-0.081 0.643177,-0.16056 0.965344,-0.23881 0.322167,-0.0782 0.644715,-0.15515 0.967635,-0.23071 0.322919,-0.0756 0.646209,-0.14979 0.969859,-0.2227 0.32365,-0.0729 0.64766,-0.1445 0.972018,-0.21478 0.324358,-0.0703 0.649064,-0.13928 0.974109,-0.20698 0.325044,-0.0677 0.650425,-0.13411 0.976134,-0.19925 0.325708,-0.0651 0.651742,-0.12902 0.978092,-0.19164 0.32635,-0.0626 0.653016,-0.12399 0.979985,-0.18413 0.32697,-0.0601 0.654244,-0.11902 0.981811,-0.1767 0.327567,-0.0577 0.655427,-0.11412 0.98357,-0.16937 0.328142,-0.0553 0.656567,-0.1093 0.985263,-0.16216 0.328696,-0.0529 0.657662,-0.10452 0.986889,-0.15502 0.329227,-0.0505 0.658714,-0.0998 0.988449,-0.148 0.329736,-0.0482 0.659721,-0.0952 0.989943,-0.14107 0.330223,-0.0459 0.660683,-0.0906 0.99137,-0.13423 0.330687,-0.0436 0.661601,-0.0861 0.99273,-0.1275 0.33113,-0.0414 0.662475,-0.0817 0.994025,-0.12087 0.33155,-0.0392 0.663304,-0.0773 0.995252,-0.11432 0.331948,-0.037 0.66409,-0.073 0.996414,-0.10789 0.332324,-0.0349 0.66483,-0.0687 0.997508,-0.10154 0.332678,-0.0328 0.665527,-0.0646 0.998537,-0.0953 0.33301,-0.0307 0.666179,-0.0605 0.999499,-0.0891 0.333319,-0.0287 0.666787,-0.0564 1.000394,-0.0831 0.333606,-0.0267 0.667351,-0.0524 1.001223,-0.0772 0.333872,-0.0247 0.667871,-0.0485 1.001985,-0.0713 0.334115,-0.0228 0.668346,-0.0447 1.002682,-0.0656 0.334336,-0.0209 0.668777,-0.0409 1.003312,-0.0599 0.334534,-0.019 0.669163,-0.0371 1.003874,-0.0543 0.334712,-0.0172 0.669506,-0.0335 1.004372,-0.0489 0.334866,-0.0154 0.669803,-0.0299 1.004802,-0.0435 0.334998,-0.0136 0.670057,-0.0264 1.005165,-0.0382 0.335109,-0.0119 0.670267,-0.0229 1.005463,-0.0331 0.335197,-0.0102 0.670432,-0.0195 1.005694,-0.028 0.335263,-0.009 0.670552,-0.0162 1.005859,-0.023 0.335306,-0.007 0.670628,-0.0129 1.005956,-0.0182 0.335328,-0.005 0.670661,-0.01 1.005988,-0.0134 0.335328,-0.004 0.670649,-0.007 1.005949,-0.009 0.33531,-0.002 0.6706,-0.004 1.00586,-0.004 0.33526,-6.4e-4 0.67049,-5.3e-4 1.00568,3.2e-4 0.33519,8.4e-4 0.67035,0.002 1.00545,0.005 0.3351,0.002 0.67016,0.005 1.00515,0.009 0.33499,0.004 0.66992,0.008 1.00478,0.0132 0.33486,0.005 0.66965,0.0108 1.00435,0.0173 0.3347,0.006 0.66932,0.0135 1.00385,0.0212 0.33453,0.008 0.66896,0.0161 1.00328,0.0251 0.33433,0.009 0.66855,0.0187 1.00265,0.0289 0.33411,0.0103 0.66809,0.0211 1.00195,0.0326 0.33386,0.0115 0.66759,0.0236 1.00119,0.0362 0.33359,0.0127 0.66704,0.0259 1.00035,0.0397 0.32721,0.0136 0.65428,0.0277 0.98119,0.0423 0.006,3.6e-4 0.0122,7.2e-4 0.0183,0.001 0.33275,0.0198 0.6656,0.0403 0.99853,0.0617 0.33293,0.0213 0.66594,0.0435 0.99901,0.0664 0.33307,0.0229 0.6662,0.0467 0.99937,0.0713 0.33317,0.0246 0.66639,0.0501 0.99962,0.0764 0.33323,0.0263 0.66649,0.0535 0.99974,0.0816 0.33326,0.0281 0.66652,0.057 0.99976,0.0869 0.33324,0.0299 0.66646,0.0607 0.99965,0.0924 0.33318,0.0317 0.66633,0.0644 0.99942,0.098 0.33309,0.0336 0.66613,0.0682 0.99908,0.10374 0.33296,0.0356 0.66584,0.0721 0.99863,0.10964 0.33279,0.0375 0.66548,0.0761 0.99805,0.11567 0.33258,0.0396 0.66504,0.0802 0.99736,0.12186 0.33233,0.0417 0.66452,0.0844 0.99656,0.12817 0.33203,0.0438 0.66391,0.0887 0.99562,0.13464 0.33171,0.046 0.66324,0.0931 0.99459,0.14124 0.33134,0.0482 0.66248,0.0975 0.99342,0.148 0.33093,0.0505 0.66166,0.10209 0.99215,0.15488 0.33049,0.0528 0.66074,0.10675 0.99075,0.16191 0.33001,0.0551 0.65976,0.11151 0.98924,0.16908 0.32949,0.0576 0.6587,0.11636 0.98762,0.1764 0.32892,0.06 0.65755,0.12131 0.98587,0.18385 0.32832,0.0625 0.65633,0.12635 0.98401,0.19145 0.32768,0.0651 0.65502,0.13149 0.98203,0.19919 0.327,0.0677 0.65365,0.13672 0.97993,0.20707 0.32628,0.0704 0.65219,0.14205 0.97772,0.2151 0.32552,0.073 0.65066,0.14746 0.97539,0.22326 0.32473,0.0758 0.64905,0.15298 0.97294,0.23156 0.3239,0.0786 0.64736,0.15859 0.97038,0.24002 0.32302,0.0814 0.6456,0.16429 0.9677,0.24861 0.32211,0.0843 0.64375,0.17009 0.9649,0.25734 0.32116,0.0872 0.64183,0.17598 0.96199,0.26621 0.32016,0.0902 0.63982,0.18197 0.95895,0.27523 0.31914,0.0933 0.63774,0.18805 0.95581,0.28439 0.31806,0.0963 0.63558,0.19423 0.95254,0.29369 0.31695,0.0995 0.63334,0.2005 0.94915,0.30313 0.31581,0.10263 0.63104,0.20686 0.94566,0.31271 0.31462,0.10586 0.62864,0.21333 0.94204,0.32244 0.31339,0.10912 0.62617,0.21988 0.9383,0.33231 0.31213,0.11243 0.62362,0.22653 0.93445,0.34232 0.31083,0.11579 0.621,0.23327 0.93049,0.35246 0.30948,0.1192 0.61829,0.24011 0.9264,0.36276 0.3081,0.12265 0.61551,0.24704 0.92219,0.3732 0.30669,0.12615 0.61265,0.25406 0.91788,0.38377 0.30523,0.1297 0.60971,0.26119 0.91344,0.39449 0.30373,0.13329 0.6067,0.2684 0.90889,0.40534 0.30219,0.13695 0.6036,0.27572 0.90422,0.41636 0.30061,0.14063 0.60043,0.28312 0.89943,0.42749 0.299,0.14437 0.59718,0.29062 0.89452,0.43878 0.29735,0.14816 0.59386,0.29822 0.88951,0.45021 0.29565,0.15199 0.59044,0.30591 0.88436,0.46178 0.29392,0.15586 0.58697,0.31369 0.87911,0.47348 0.28517,0.15598 0.56949,0.31384 0.85293,0.47361 0.007,0.004 0.0135,0.008 0.0202,0.0127 0.28226,0.17734 0.56346,0.35695 0.84316,0.53915 0.2797,0.1822 0.5579,0.36697 0.83416,0.55464 0.27625,0.18767 0.55057,0.37824 0.8225,0.572 0.27192,0.19376 0.54147,0.39071 0.80819,0.59118 0.26672,0.20047 0.53062,0.40444 0.79125,0.61223 0.26063,0.20779 0.51799,0.4194 0.77165,0.63512 0.25366,0.21573 0.50361,0.43559 0.74941,0.65987 0.24581,0.22429 0.48746,0.45301 0.72453,0.68646 0.23706,0.23346 0.46954,0.47166 0.69698,0.71491 0.1145,0.12245 0.22773,0.24619 0.33962,0.37124 0.11038,0.12335 0.21928,0.24829 0.32661,0.37474 0.21612,0.25465 0.42583,0.51548 0.62823,0.78206 0.20241,0.26659 0.39751,0.53894 0.58442,0.81664 0.18691,0.2777 0.36563,0.56074 0.53525,0.84872 0.16963,0.28797 0.33018,0.58088 0.48074,0.8783 0.15057,0.29742 0.29116,0.59935 0.42088,0.90539 0.12972,0.30603 0.24857,0.61617 0.35567,0.92999 0.10709,0.31381 0.20242,0.63131 0.28511,0.95208 0.0827,0.32077 0.15271,0.64481 0.2092,0.9717"
       sodipodi:nodetypes="ccccc"
       inkscape:path-effect="#path-effect33900"
       inkscape:original-d="m 29.873474,180.502 c 1.09012,-7.68362 8.273027,-12.49588 14.613457,-15.84376 21.364365,-10.25546 45.678232,-11.86489 69.018299,-10.82009 17.1949,1.02082 34.80247,4.09556 49.96955,12.64463 5.17755,3.2504 10.7758,7.82464 11.3534,14.37094" />
    <g
       id="g32788"
       transform="rotate(-90,8.35,165.3991)">
      <g
         id="g32235"
         transform="rotate(90,8.35,165.3991)">
        <path
           id="path31689"
           style="fill:#ffff00;stroke-width:0.253387;stop-color:#000000"
           d="m 9.1825769,164.11544 a 2.4824712,1.2835175 0 0 0 -2.3147789,0.81981 2.4824712,1.2833302 0 0 0 -0.072866,0.11223 2.4824712,1.2835175 0 0 0 0,2.6e-4 2.4824712,1.2833302 0 0 0 -0.052854,0.11515 2.4824712,1.2835175 0 0 0 0,2.6e-4 2.4824712,1.2835175 0 0 0 -0.031302,0.11727 2.4824712,1.2833302 0 0 0 -0.010776,0.11833 2.4824712,1.2835175 0 0 0 0,2.6e-4 h 1.615368 c -1.984e-4,-0.006 -6.475e-4,-0.0111 -5.132e-4,-0.0167 0,0 0,-2.6e-4 0,-2.6e-4 2.942e-4,-0.0123 0.00117,-0.0247 0.00308,-0.0369 0,0 0,-2.7e-4 0,-2.7e-4 0.00193,-0.0123 0.00462,-0.0244 0.00821,-0.0366 0.00359,-0.0122 0.00807,-0.0243 0.013342,-0.0363 0.00523,-0.0119 0.011564,-0.0237 0.018473,-0.0353 0,0 0,-2.7e-4 0,-2.7e-4 0.00692,-0.0117 0.014983,-0.0232 0.023604,-0.0345 0,0 0,-2.6e-4 0,-2.6e-4 0.00863,-0.0113 0.017867,-0.0223 0.028223,-0.0332 0,0 0,-2.7e-4 0,-2.7e-4 0.00522,-0.005 0.010761,-0.0108 0.01642,-0.0162 0.011318,-0.0107 0.02385,-0.0214 0.036946,-0.0316 0.00655,-0.005 0.013016,-0.01 0.020012,-0.0148 0.013993,-0.01 0.02884,-0.0197 0.044643,-0.0289 0.0079,-0.005 0.016272,-0.009 0.024631,-0.0136 0.00836,-0.005 0.016839,-0.009 0.025657,-0.013 0,0 0,-2.6e-4 0,-2.6e-4 0.00882,-0.004 0.017916,-0.008 0.027196,-0.0125 0.01856,-0.008 0.038073,-0.016 0.058498,-0.0234 0.010213,-0.004 0.020619,-0.007 0.031302,-0.0109 0.3403422,-0.0377 0.6836402,-0.059 1.0288478,-0.0703 0.09863,-0.003 0.197163,-0.006 0.2960814,-0.007 0.09892,-0.002 0.198462,-0.003 0.297622,-0.003 0.545379,-0.003 1.093622,0.0113 1.641538,0.018 0.298863,0.004 0.597656,0.005 0.895431,0.001 0.04963,-5.1e-4 0.09923,-0.002 0.148811,-0.003 0.148734,-0.003 0.297243,-0.008 0.445406,-0.0154 0.05327,-2.5e-4 0.107928,-5.1e-4 0.163692,-10e-4 0.05576,-4.4e-4 0.112634,-0.001 0.16985,-0.001 0.03099,1.3e-4 0.06225,5.1e-4 0.09339,0.001 0.124578,0.002 0.249257,0.007 0.368948,0.0175 0.04488,0.004 0.08933,0.009 0.132391,0.0151 0.04307,0.006 0.08509,0.0132 0.125719,0.0215 0.04063,0.008 0.07994,0.0178 0.117509,0.0287 0.01253,0.004 0.02481,0.007 0.03695,0.0114 0.03642,0.0119 0.07111,0.0252 0.103655,0.04 0.01085,0.005 0.02144,0.0101 0.03181,0.0154 0.01037,0.005 0.0204,0.0107 0.03028,0.0164 0,0 0,2.7e-4 0,2.7e-4 0.0098,0.006 0.01947,0.0114 0.02874,0.0175 0,0 0,2.7e-4 0,2.7e-4 0.0093,0.006 0.01847,0.0121 0.0272,0.0186 0,0 0,2.7e-4 0,2.7e-4 0.0087,0.006 0.0175,0.013 0.02566,0.0199 0,0 0,2.7e-4 0,2.7e-4 0.0082,0.007 0.01603,0.014 0.0236,0.0212 0,0 0,2.7e-4 0,2.7e-4 0.0076,0.007 0.01504,0.0147 0.02207,0.0225 0.007,0.008 0.01413,0.0157 0.02053,0.0239 0,0 0,2.6e-4 0,2.6e-4 0.0063,0.008 0.01228,0.0166 0.01796,0.0252 0,0 0,2.6e-4 0,2.6e-4 0.0095,0.0122 0.01831,0.0243 0.02566,0.0363 0,0 0,2.7e-4 0,2.7e-4 0.0073,0.012 0.01372,0.024 0.01899,0.0358 0,0 0,2.7e-4 0,2.7e-4 0.0053,0.0118 0.0096,0.0234 0.01283,0.035 0,0 0,2.7e-4 0,2.7e-4 0.0033,0.0116 0.0053,0.0231 0.0067,0.0345 0,0 0,2.6e-4 0,2.6e-4 6.76e-4,0.006 8.36e-4,0.0115 10e-4,0.0173 h 1.576369 a 2.4824712,1.2835175 0 0 0 0,-2.7e-4 2.4824712,1.2833302 0 0 0 -0.01078,-0.11833 2.4824712,1.2835175 0 0 0 -0.03181,-0.11753 2.4824712,1.2833302 0 0 0 -0.05234,-0.11514 2.4824712,1.2835175 0 0 0 0,-2.7e-4 2.4824712,1.2833302 0 0 0 -0.07287,-0.11222 2.4824712,1.2835175 0 0 0 -0.09236,-0.10852 2.4824712,1.2835175 0 0 0 -0.241176,-0.20137 2.4824712,1.2835175 0 0 0 -1.981238,-0.50966 H 9.182605 Z" />
        <path
           id="path31077"
           style="fill:#ff0000;stroke-width:0.353615;stop-color:#000000"
           d="m 2.4825763,162.8991 a 2.4824712,2.49973 0 0 0 -2.31477918,1.59663 2.4824712,2.4993652 0 0 0 -0.07286603,0.21856 2.4824712,2.49973 0 0 0 0,5.2e-4 2.4824712,2.4993652 0 0 0 -0.05285353,0.22425 2.4824712,2.49973 0 0 0 0,5.2e-4 2.4824712,2.49973 0 0 0 -0.0313016,0.22838 A 2.4824712,2.4993652 0 0 0 0,165.39842 a 2.4824712,2.49973 0 0 0 0,5.1e-4 h 1.615368 c -1.984e-4,-0.0109 -6.475e-4,-0.0216 -5.132e-4,-0.0326 0,0 0,-5.2e-4 0,-5.2e-4 2.942e-4,-0.0239 0.00117,-0.048 0.00308,-0.0718 0,0 0,-5.2e-4 0,-5.2e-4 0.00193,-0.024 0.00462,-0.0476 0.00821,-0.0713 0.00359,-0.0237 0.00807,-0.0474 0.013342,-0.0708 0.00523,-0.0232 0.011564,-0.0461 0.018473,-0.0687 0,0 0,-5.2e-4 0,-5.2e-4 0.00692,-0.0227 0.014983,-0.0452 0.023604,-0.0672 0,0 0,-5.2e-4 0,-5.2e-4 0.00863,-0.022 0.017867,-0.0434 0.028223,-0.0646 0,0 0,-5.2e-4 0,-5.2e-4 0.00522,-0.0107 0.010761,-0.0211 0.01642,-0.0315 0.011318,-0.0209 0.02385,-0.0416 0.036946,-0.0615 0.00655,-0.01 0.013016,-0.0193 0.020012,-0.0289 0.013993,-0.0193 0.02884,-0.0383 0.044643,-0.0563 0.0079,-0.009 0.016272,-0.0177 0.024631,-0.0264 0.00836,-0.009 0.016839,-0.017 0.025657,-0.0253 0,0 0,-5.2e-4 0,-5.2e-4 0.00882,-0.008 0.017916,-0.0163 0.027196,-0.0243 0.01856,-0.016 0.038073,-0.0311 0.058498,-0.0455 0.010213,-0.007 0.020619,-0.0144 0.031302,-0.0212 0.3403426,-0.0735 0.6836406,-0.1149 1.0288479,-0.13692 0.09863,-0.006 0.197163,-0.0111 0.2960823,-0.0145 0.098919,-0.003 0.198462,-0.005 0.2976217,-0.006 0.5453788,-0.005 1.0936219,0.022 1.6415381,0.0351 0.2988636,0.007 0.5976557,0.0101 0.8954311,0.002 0.049629,-0.001 0.099233,-0.003 0.1488111,-0.005 0.1487336,-0.006 0.2972428,-0.0163 0.4454063,-0.03 0.053269,-5e-4 0.1079279,-0.001 0.163692,-0.002 0.055764,-8.7e-4 0.1126332,-0.002 0.1698496,-0.002 0.030992,2.5e-4 0.062247,0.001 0.093392,0.002 0.1245776,0.003 0.2492568,0.0127 0.3689484,0.0341 0.044884,0.008 0.089326,0.0177 0.1323904,0.0294 0.043065,0.0118 0.085092,0.0257 0.1257196,0.0419 0.040628,0.0162 0.079936,0.0346 0.1175091,0.0558 0.012525,0.007 0.024807,0.0145 0.036946,0.0222 0.036418,0.0231 0.071115,0.049 0.1036547,0.078 0.010846,0.01 0.021445,0.0196 0.031814,0.03 0.01037,0.0104 0.020405,0.0209 0.030276,0.032 0,0 0,5.2e-4 0,5.2e-4 0.00978,0.011 0.01947,0.0223 0.028736,0.0341 0,0 0,5.1e-4 0,5.1e-4 0.00926,0.0118 0.018473,0.0236 0.027196,0.0362 0,0 0,5.1e-4 0,5.1e-4 0.00872,0.0126 0.017498,0.0254 0.025657,0.0388 0,0 0,5.2e-4 0,5.2e-4 0.00815,0.0134 0.016032,0.0272 0.023604,0.0413 0,0 0,5.2e-4 0,5.2e-4 0.00764,0.0143 0.015036,0.0287 0.022065,0.0439 0.00703,0.0152 0.014133,0.0305 0.020526,0.0465 0,0 0,5.1e-4 0,5.1e-4 0.00633,0.0159 0.01228,0.0323 0.01796,0.0491 0,0 0,5.1e-4 0,5.1e-4 0.00949,0.0238 0.018306,0.0474 0.025657,0.0708 0,0 0,5.2e-4 0,5.2e-4 0.00733,0.0234 0.013718,0.0467 0.018986,0.0698 0,0 0,5.2e-4 0,5.2e-4 0.00525,0.023 0.00957,0.0456 0.012828,0.0682 0,0 0,5.2e-4 0,5.2e-4 0.00325,0.0226 0.00533,0.045 0.00667,0.0672 0,0 0,5.2e-4 0,5.2e-4 6.763e-4,0.0113 8.355e-4,0.0224 0.00103,0.0336 h 1.5763692 a 2.4824712,2.49973 0 0 0 0,-5.1e-4 2.4824712,2.4993652 0 0 0 -0.010776,-0.23046 2.4824712,2.49973 0 0 0 -0.031815,-0.2289 2.4824712,2.4993652 0 0 0 -0.05234,-0.22425 2.4824712,2.49973 0 0 0 0,-5.2e-4 2.4824712,2.4993652 0 0 0 -0.072866,-0.21856 2.4824712,2.49973 0 0 0 -0.092365,-0.21134 2.4824712,2.49973 0 0 0 -0.2411763,-0.39218 2.4824712,2.49973 0 0 0 -1.9812376,-0.9926 H 2.4825763 Z" />
        <path
           id="path31626"
           style="fill:#ff0000;stroke-width:0.353615;stop-color:#000000"
           d="m 2.5522713,167.8991 a 2.4824713,2.49973 0 0 1 -2.31477922,-1.59664 2.4824713,2.4993652 0 0 1 -0.072866,-0.21856 2.4824713,2.49973 0 0 1 0,-5.1e-4 2.4824713,2.4993652 0 0 1 -0.0528535,-0.22426 2.4824713,2.49973 0 0 1 0,-5.1e-4 2.4824713,2.49973 0 0 1 -0.0313016,-0.22838 2.4824713,2.4993652 0 0 1 -0.01077596,-0.23046 2.4824713,2.49973 0 0 1 0,-5.2e-4 H 1.6850629 c -1.983e-4,0.0109 -6.474e-4,0.0216 -5.131e-4,0.0326 0,0 0,5.1e-4 0,5.1e-4 2.941e-4,0.0239 0.00117,0.048 0.00308,0.0718 0,0 0,5.2e-4 0,5.2e-4 0.00194,0.024 0.00462,0.0476 0.00821,0.0713 0.00358,0.0237 0.00807,0.0474 0.013342,0.0708 0.00523,0.0232 0.011563,0.0461 0.018473,0.0687 0,0 0,5.2e-4 0,5.2e-4 0.00692,0.0227 0.014982,0.0452 0.023604,0.0672 0,0 0,5.2e-4 0,5.2e-4 0.00864,0.022 0.017867,0.0434 0.028223,0.0646 0,0 0,5.2e-4 0,5.2e-4 0.00522,0.0107 0.010761,0.0211 0.01642,0.0315 0.011318,0.0209 0.023851,0.0416 0.036946,0.0615 0.00654,0.01 0.013016,0.0193 0.020013,0.0289 0.013993,0.0193 0.02884,0.0383 0.044644,0.0563 0.0079,0.009 0.016272,0.0177 0.024631,0.0264 0.00836,0.009 0.016839,0.017 0.025657,0.0253 0,0 0,5.1e-4 0,5.1e-4 0.00882,0.008 0.017917,0.0163 0.027197,0.0243 0.01856,0.016 0.038072,0.0311 0.058498,0.0455 0.010213,0.007 0.020618,0.0144 0.031302,0.0212 0.3403427,0.0735 0.6836406,0.11491 1.0288479,0.13693 0.098631,0.006 0.1971631,0.0111 0.2960824,0.0145 0.09892,0.003 0.1984619,0.005 0.2976216,0.006 0.5453789,0.005 1.0936219,-0.022 1.6415382,-0.0351 0.2988636,-0.007 0.5976557,-0.0101 0.895431,-0.002 0.04963,0.001 0.099233,0.003 0.1488112,0.005 0.1487336,0.006 0.2972427,0.0163 0.4454063,0.03 0.053269,5e-4 0.1079279,0.001 0.1636919,0.002 0.055764,8.8e-4 0.1126332,0.002 0.1698496,0.002 0.030992,-2.5e-4 0.062247,-0.001 0.093392,-0.002 0.1245775,-0.004 0.2492568,-0.0127 0.3689484,-0.0341 0.044884,-0.008 0.089325,-0.0177 0.1323903,-0.0295 0.043065,-0.0118 0.085091,-0.0257 0.1257196,-0.0419 0.040628,-0.0162 0.079937,-0.0346 0.1175092,-0.0558 0.012525,-0.007 0.024807,-0.0145 0.036946,-0.0222 0.036418,-0.0231 0.071115,-0.049 0.1036547,-0.078 0.010846,-0.01 0.021445,-0.0196 0.031814,-0.03 0.01037,-0.0104 0.020405,-0.0209 0.030275,-0.032 0,0 0,-5.1e-4 0,-5.1e-4 0.00978,-0.011 0.019469,-0.0223 0.028736,-0.0341 0,0 0,-5.2e-4 0,-5.2e-4 0.00925,-0.0118 0.018474,-0.0236 0.027196,-0.0362 0,0 0,-5.2e-4 0,-5.2e-4 0.00872,-0.0126 0.017498,-0.0254 0.025657,-0.0388 0,0 0,-5.1e-4 0,-5.1e-4 0.00815,-0.0134 0.016033,-0.0272 0.023604,-0.0413 0,0 0,-5.2e-4 0,-5.2e-4 0.00765,-0.0143 0.015036,-0.0288 0.022065,-0.0439 0.00703,-0.0152 0.014133,-0.0305 0.020526,-0.0465 0,0 0,-5.2e-4 0,-5.2e-4 0.00633,-0.0159 0.012279,-0.0323 0.01796,-0.0491 0,0 0,-5.2e-4 0,-5.2e-4 0.00949,-0.0238 0.018306,-0.0474 0.025657,-0.0708 0,0 0,-5.1e-4 0,-5.1e-4 0.00734,-0.0234 0.013718,-0.0467 0.018986,-0.0698 0,0 0,-5.1e-4 0,-5.1e-4 0.00525,-0.023 0.00956,-0.0456 0.012828,-0.0682 0,0 0,-5.2e-4 0,-5.2e-4 0.00325,-0.0226 0.00533,-0.045 0.00667,-0.0672 0,0 0,-5.2e-4 0,-5.2e-4 6.763e-4,-0.0113 8.355e-4,-0.0224 0.00102,-0.0336 H 10 a 2.4824713,2.49973 0 0 1 0,5.2e-4 2.4824713,2.4993652 0 0 1 -0.010774,0.23046 2.4824713,2.49973 0 0 1 -0.031815,0.22889 2.4824713,2.4993652 0 0 1 -0.05234,0.22426 2.4824713,2.49973 0 0 1 0,5.1e-4 2.4824713,2.4993652 0 0 1 -0.072866,0.21856 2.4824713,2.49973 0 0 1 -0.092366,0.21134 2.4824713,2.49973 0 0 1 -0.2411764,0.39219 2.4824713,2.49973 0 0 1 -1.9812376,0.99259 H 2.5522713 Z" />
        <path
           id="path31691"
           style="fill:#ffff00;stroke-width:0.253387;stop-color:#000000"
           d="m 9.2522719,166.68276 a 2.4824713,1.2835175 0 0 1 -2.3147789,-0.81982 2.4824713,1.2833302 0 0 1 -0.072866,-0.11222 2.4824713,1.2835175 0 0 1 0,-2.6e-4 2.4824713,1.2833302 0 0 1 -0.052854,-0.11515 2.4824713,1.2835175 0 0 1 0,-2.6e-4 2.4824713,1.2835175 0 0 1 -0.031302,-0.11727 2.4824713,1.2833302 0 0 1 -0.010776,-0.11833 2.4824713,1.2835175 0 0 1 0,-2.7e-4 h 1.6153679 c -1.983e-4,0.006 -6.474e-4,0.0111 -5.131e-4,0.0167 0,0 0,2.6e-4 0,2.6e-4 2.941e-4,0.0123 0.00117,0.0247 0.00308,0.0369 0,0 0,2.7e-4 0,2.7e-4 0.00194,0.0123 0.00462,0.0244 0.00821,0.0366 0.00358,0.0122 0.00807,0.0243 0.013342,0.0364 0.00523,0.0119 0.011563,0.0237 0.018473,0.0353 0,0 0,2.7e-4 0,2.7e-4 0.00692,0.0117 0.014982,0.0232 0.023604,0.0345 0,0 0,2.6e-4 0,2.6e-4 0.00864,0.0113 0.017867,0.0223 0.028223,0.0332 0,0 0,2.7e-4 0,2.7e-4 0.00522,0.005 0.010761,0.0108 0.01642,0.0162 0.011318,0.0107 0.023851,0.0214 0.036946,0.0316 0.00654,0.005 0.013016,0.01 0.020013,0.0148 0.013993,0.01 0.02884,0.0197 0.044644,0.0289 0.0079,0.005 0.016272,0.009 0.024631,0.0136 0.00836,0.005 0.016839,0.009 0.025657,0.013 0,0 0,2.7e-4 0,2.7e-4 0.00882,0.004 0.017917,0.008 0.027197,0.0125 0.01856,0.008 0.038072,0.016 0.058498,0.0234 0.010213,0.004 0.020618,0.007 0.031302,0.0109 0.3403432,0.0377 0.6836398,0.059 1.0288478,0.0703 0.09863,0.003 0.1971627,0.006 0.2960814,0.007 0.09892,0.002 0.198462,0.003 0.297622,0.003 0.545379,0.003 1.093622,-0.0113 1.641538,-0.018 0.298864,-0.004 0.597656,-0.005 0.895431,-0.001 0.04963,5.1e-4 0.09923,0.002 0.148811,0.003 0.148734,0.003 0.297243,0.008 0.445406,0.0154 0.05327,2.5e-4 0.107928,5.1e-4 0.163692,0.001 0.05576,4.6e-4 0.112634,0.001 0.16985,0.001 0.03099,-1.3e-4 0.06225,-5.1e-4 0.09339,-0.001 0.124577,-0.002 0.249257,-0.007 0.368948,-0.0175 0.04488,-0.004 0.08933,-0.009 0.132391,-0.0152 0.04307,-0.006 0.08509,-0.0132 0.125719,-0.0215 0.04063,-0.008 0.07994,-0.0178 0.117509,-0.0286 0.01253,-0.004 0.02481,-0.007 0.03695,-0.0114 0.03642,-0.0119 0.07112,-0.0252 0.103655,-0.0401 0.01085,-0.005 0.02144,-0.0101 0.03181,-0.0154 0.01037,-0.005 0.02041,-0.0107 0.03027,-0.0164 0,0 0,-2.6e-4 0,-2.6e-4 0.0098,-0.006 0.01947,-0.0115 0.02874,-0.0175 0,0 0,-2.7e-4 0,-2.7e-4 0.0093,-0.006 0.01847,-0.0121 0.0272,-0.0186 0,0 0,-2.6e-4 0,-2.6e-4 0.0087,-0.006 0.0175,-0.013 0.02566,-0.0199 0,0 0,-2.7e-4 0,-2.7e-4 0.0082,-0.007 0.01603,-0.014 0.0236,-0.0212 0,0 0,-2.7e-4 0,-2.7e-4 0.0076,-0.007 0.01504,-0.0148 0.02206,-0.0225 0.007,-0.008 0.01413,-0.0157 0.02053,-0.0239 0,0 0,-2.6e-4 0,-2.6e-4 0.0063,-0.008 0.01228,-0.0166 0.01796,-0.0252 0,0 0,-2.7e-4 0,-2.7e-4 0.0095,-0.0122 0.01831,-0.0243 0.02566,-0.0363 0,0 0,-2.7e-4 0,-2.7e-4 0.0073,-0.012 0.01372,-0.024 0.01899,-0.0358 0,0 0,-2.6e-4 0,-2.6e-4 0.0053,-0.0118 0.0096,-0.0234 0.01283,-0.035 0,0 0,-2.6e-4 0,-2.6e-4 0.0032,-0.0116 0.0053,-0.0231 0.0067,-0.0345 0,0 0,-2.7e-4 0,-2.7e-4 6.76e-4,-0.006 8.36e-4,-0.0115 10e-4,-0.0172 H 16.7 a 2.4824713,1.2835175 0 0 1 0,2.7e-4 2.4824713,1.2833302 0 0 1 -0.01077,0.11833 2.4824713,1.2835175 0 0 1 -0.03181,0.11753 2.4824713,1.2833302 0 0 1 -0.05234,0.11515 2.4824713,1.2835175 0 0 1 0,2.6e-4 2.4824713,1.2833302 0 0 1 -0.07287,0.11222 2.4824713,1.2835175 0 0 1 -0.09237,0.10852 2.4824713,1.2835175 0 0 1 -0.241176,0.20137 2.4824713,1.2835175 0 0 1 -1.981238,0.50966 H 9.2522729 Z" />
      </g>
    </g>
    <path
       id="path32223"
       style="fill:#ffff00;stroke-width:0.253387;stop-color:#000000"
       d="m 9.1825769,182.63639 a 2.4824712,1.2835175 0 0 0 -2.3147789,0.81981 2.4824712,1.2833302 0 0 0 -0.072866,0.11223 2.4824712,1.2835175 0 0 0 0,2.6e-4 2.4824712,1.2833302 0 0 0 -0.052854,0.11515 2.4824712,1.2835175 0 0 0 0,2.6e-4 2.4824712,1.2835175 0 0 0 -0.031302,0.11727 A 2.4824712,1.2833302 0 0 0 6.7,183.9197 a 2.4824712,1.2835175 0 0 0 0,2.6e-4 h 1.615368 c -1.984e-4,-0.006 -6.475e-4,-0.0111 -5.132e-4,-0.0167 0,0 0,-2.6e-4 0,-2.6e-4 2.942e-4,-0.0123 0.00117,-0.0247 0.00308,-0.0369 0,0 0,-2.7e-4 0,-2.7e-4 0.00193,-0.0123 0.00462,-0.0244 0.00821,-0.0366 0.00359,-0.0122 0.00807,-0.0243 0.013342,-0.0363 0.00523,-0.0119 0.011564,-0.0237 0.018473,-0.0353 0,0 0,-2.7e-4 0,-2.7e-4 0.00692,-0.0117 0.014983,-0.0232 0.023604,-0.0345 0,0 0,-2.6e-4 0,-2.6e-4 0.00863,-0.0113 0.017867,-0.0223 0.028223,-0.0332 0,0 0,-2.7e-4 0,-2.7e-4 0.00522,-0.005 0.010761,-0.0108 0.01642,-0.0162 0.011318,-0.0107 0.02385,-0.0214 0.036946,-0.0316 0.00655,-0.005 0.013016,-0.01 0.020012,-0.0148 0.013993,-0.01 0.02884,-0.0197 0.044643,-0.0289 0.0079,-0.005 0.016272,-0.009 0.024631,-0.0136 0.00836,-0.005 0.016839,-0.009 0.025657,-0.013 0,0 0,-2.6e-4 0,-2.6e-4 0.00882,-0.004 0.017916,-0.008 0.027196,-0.0125 0.01856,-0.008 0.038073,-0.016 0.058498,-0.0234 0.010213,-0.004 0.020619,-0.007 0.031302,-0.0109 0.3403422,-0.0377 0.6836402,-0.059 1.0288478,-0.0703 0.09863,-0.003 0.197163,-0.006 0.2960814,-0.007 0.09892,-0.002 0.198462,-0.003 0.297622,-0.003 0.545379,-0.003 1.093622,0.0113 1.641538,0.018 0.298863,0.004 0.597656,0.005 0.895431,0.001 0.04963,-5.1e-4 0.09923,-0.002 0.148811,-0.003 0.148734,-0.003 0.297243,-0.008 0.445406,-0.0154 0.05327,-2.5e-4 0.107928,-5.1e-4 0.163692,-10e-4 0.05576,-4.4e-4 0.112634,-0.001 0.16985,-0.001 0.03099,1.3e-4 0.06225,5.1e-4 0.09339,0.001 0.124578,0.002 0.249257,0.007 0.368948,0.0175 0.04488,0.004 0.08933,0.009 0.132391,0.0151 0.04307,0.006 0.08509,0.0132 0.125719,0.0215 0.04063,0.008 0.07994,0.0178 0.117509,0.0287 0.01253,0.004 0.02481,0.007 0.03695,0.0114 0.03642,0.0119 0.07111,0.0252 0.103655,0.04 0.01085,0.005 0.02144,0.0101 0.03181,0.0154 0.01037,0.005 0.0204,0.0107 0.03028,0.0164 0,0 0,2.7e-4 0,2.7e-4 0.0098,0.006 0.01947,0.0114 0.02874,0.0175 0,0 0,2.7e-4 0,2.7e-4 0.0093,0.006 0.01847,0.0121 0.0272,0.0186 0,0 0,2.7e-4 0,2.7e-4 0.0087,0.006 0.0175,0.013 0.02566,0.0199 0,0 0,2.7e-4 0,2.7e-4 0.0082,0.007 0.01603,0.014 0.0236,0.0212 0,0 0,2.7e-4 0,2.7e-4 0.0076,0.007 0.01504,0.0147 0.02207,0.0225 0.007,0.008 0.01413,0.0157 0.02053,0.0239 0,0 0,2.6e-4 0,2.6e-4 0.0063,0.008 0.01228,0.0166 0.01796,0.0252 0,0 0,2.6e-4 0,2.6e-4 0.0095,0.0122 0.01831,0.0243 0.02566,0.0363 0,0 0,2.7e-4 0,2.7e-4 0.0073,0.012 0.01372,0.024 0.01899,0.0358 0,0 0,2.7e-4 0,2.7e-4 0.0053,0.0118 0.0096,0.0234 0.01283,0.035 0,0 0,2.7e-4 0,2.7e-4 0.0033,0.0116 0.0053,0.0231 0.0067,0.0345 0,0 0,2.6e-4 0,2.6e-4 6.76e-4,0.006 8.36e-4,0.0115 10e-4,0.0173 h 1.576369 a 2.4824712,1.2835175 0 0 0 0,-2.7e-4 2.4824712,1.2833302 0 0 0 -0.01078,-0.11833 2.4824712,1.2835175 0 0 0 -0.03181,-0.11753 2.4824712,1.2833302 0 0 0 -0.05234,-0.11514 2.4824712,1.2835175 0 0 0 0,-2.7e-4 2.4824712,1.2833302 0 0 0 -0.07287,-0.11222 2.4824712,1.2835175 0 0 0 -0.09236,-0.10852 2.4824712,1.2835175 0 0 0 -0.241176,-0.20137 2.4824712,1.2835175 0 0 0 -1.981238,-0.50966 H 9.182605 Z" />
    <path
       id="path32225"
       style="fill:#ff0000;stroke-width:0.353615;stop-color:#000000"
       d="m 2.4825763,181.42005 a 2.4824712,2.49973 0 0 0 -2.31477918,1.59663 2.4824712,2.4993652 0 0 0 -0.07286603,0.21856 2.4824712,2.49973 0 0 0 0,5.2e-4 2.4824712,2.4993652 0 0 0 -0.05285353,0.22425 2.4824712,2.49973 0 0 0 0,5.2e-4 2.4824712,2.49973 0 0 0 -0.0313016,0.22838 A 2.4824712,2.4993652 0 0 0 0,183.91937 a 2.4824712,2.49973 0 0 0 0,5.1e-4 h 1.615368 c -1.984e-4,-0.0109 -6.475e-4,-0.0216 -5.132e-4,-0.0326 0,0 0,-5.2e-4 0,-5.2e-4 2.942e-4,-0.0239 0.00117,-0.048 0.00308,-0.0718 0,0 0,-5.2e-4 0,-5.2e-4 0.00193,-0.024 0.00462,-0.0476 0.00821,-0.0713 0.00359,-0.0237 0.00807,-0.0474 0.013342,-0.0708 0.00523,-0.0232 0.011564,-0.0461 0.018473,-0.0687 0,0 0,-5.2e-4 0,-5.2e-4 0.00692,-0.0227 0.014983,-0.0452 0.023604,-0.0672 0,0 0,-5.2e-4 0,-5.2e-4 0.00863,-0.022 0.017867,-0.0434 0.028223,-0.0646 0,0 0,-5.2e-4 0,-5.2e-4 0.00522,-0.0107 0.010761,-0.0211 0.01642,-0.0315 0.011318,-0.0209 0.02385,-0.0416 0.036946,-0.0615 0.00655,-0.01 0.013016,-0.0193 0.020012,-0.0289 0.013993,-0.0193 0.02884,-0.0383 0.044643,-0.0563 0.0079,-0.009 0.016272,-0.0177 0.024631,-0.0264 0.00836,-0.009 0.016839,-0.017 0.025657,-0.0253 0,0 0,-5.2e-4 0,-5.2e-4 0.00882,-0.008 0.017916,-0.0163 0.027196,-0.0243 0.01856,-0.016 0.038073,-0.0311 0.058498,-0.0455 0.010213,-0.007 0.020619,-0.0144 0.031302,-0.0212 0.3403426,-0.0735 0.6836406,-0.1149 1.0288479,-0.13692 0.09863,-0.006 0.197163,-0.0111 0.2960823,-0.0145 0.098919,-0.003 0.198462,-0.005 0.2976217,-0.006 0.5453788,-0.005 1.0936219,0.022 1.6415381,0.0351 0.2988636,0.007 0.5976557,0.0101 0.8954311,0.002 0.049629,-0.001 0.099233,-0.003 0.1488111,-0.005 0.1487336,-0.006 0.2972428,-0.0163 0.4454063,-0.03 0.053269,-5e-4 0.1079279,-0.001 0.163692,-0.002 0.055764,-8.7e-4 0.1126332,-0.002 0.1698496,-0.002 0.030992,2.5e-4 0.062247,0.001 0.093392,0.002 0.1245776,0.003 0.2492568,0.0127 0.3689484,0.0341 0.044884,0.008 0.089326,0.0177 0.1323904,0.0294 0.043065,0.0118 0.085092,0.0257 0.1257196,0.0419 0.040628,0.0162 0.079936,0.0346 0.1175091,0.0558 0.012525,0.007 0.024807,0.0145 0.036946,0.0222 0.036418,0.0231 0.071115,0.049 0.1036547,0.078 0.010846,0.01 0.021445,0.0196 0.031814,0.03 0.01037,0.0104 0.020405,0.0209 0.030276,0.032 0,0 0,5.2e-4 0,5.2e-4 0.00978,0.011 0.01947,0.0223 0.028736,0.0341 0,0 0,5.1e-4 0,5.1e-4 0.00926,0.0118 0.018473,0.0236 0.027196,0.0362 0,0 0,5.1e-4 0,5.1e-4 0.00872,0.0126 0.017498,0.0254 0.025657,0.0388 0,0 0,5.2e-4 0,5.2e-4 0.00815,0.0134 0.016032,0.0272 0.023604,0.0413 0,0 0,5.2e-4 0,5.2e-4 0.00764,0.0143 0.015036,0.0287 0.022065,0.0439 0.00703,0.0152 0.014133,0.0305 0.020526,0.0465 0,0 0,5.1e-4 0,5.1e-4 0.00633,0.0159 0.01228,0.0323 0.01796,0.0491 0,0 0,5.1e-4 0,5.1e-4 0.00949,0.0238 0.018306,0.0474 0.025657,0.0708 0,0 0,5.2e-4 0,5.2e-4 0.00733,0.0234 0.013718,0.0467 0.018986,0.0698 0,0 0,5.2e-4 0,5.2e-4 0.00525,0.023 0.00957,0.0456 0.012828,0.0682 0,0 0,5.2e-4 0,5.2e-4 0.00325,0.0226 0.00533,0.045 0.00667,0.0672 0,0 0,5.2e-4 0,5.2e-4 6.763e-4,0.0113 8.355e-4,0.0224 0.00103,0.0336 h 1.5763692 a 2.4824712,2.49973 0 0 0 0,-5.1e-4 2.4824712,2.4993652 0 0 0 -0.010776,-0.23046 2.4824712,2.49973 0 0 0 -0.031815,-0.2289 2.4824712,2.4993652 0 0 0 -0.05234,-0.22425 2.4824712,2.49973 0 0 0 0,-5.2e-4 2.4824712,2.4993652 0 0 0 -0.072866,-0.21856 2.4824712,2.49973 0 0 0 -0.092365,-0.21134 A 2.4824712,2.49973 0 0 0 9.428968,182.4134 2.4824712,2.49973 0 0 0 7.4477304,181.4208 H 2.4825763 Z" />
    <path
       id="path32227"
       style="fill:#ff0000;stroke-width:0.353615;stop-color:#000000"
       d="m 2.5522713,186.42005 a 2.4824713,2.49973 0 0 1 -2.31477922,-1.59664 2.4824713,2.4993652 0 0 1 -0.072866,-0.21856 2.4824713,2.49973 0 0 1 0,-5.1e-4 2.4824713,2.4993652 0 0 1 -0.0528535,-0.22426 2.4824713,2.49973 0 0 1 0,-5.1e-4 2.4824713,2.49973 0 0 1 -0.0313016,-0.22838 2.4824713,2.4993652 0 0 1 -0.01077596,-0.23046 2.4824713,2.49973 0 0 1 0,-5.2e-4 H 1.6850629 c -1.983e-4,0.0109 -6.474e-4,0.0216 -5.131e-4,0.0326 0,0 0,5.1e-4 0,5.1e-4 2.941e-4,0.0239 0.00117,0.048 0.00308,0.0718 0,0 0,5.2e-4 0,5.2e-4 0.00194,0.024 0.00462,0.0476 0.00821,0.0713 0.00358,0.0237 0.00807,0.0474 0.013342,0.0708 0.00523,0.0232 0.011563,0.0461 0.018473,0.0687 0,0 0,5.2e-4 0,5.2e-4 0.00692,0.0227 0.014982,0.0452 0.023604,0.0672 0,0 0,5.2e-4 0,5.2e-4 0.00864,0.022 0.017867,0.0434 0.028223,0.0646 0,0 0,5.2e-4 0,5.2e-4 0.00522,0.0107 0.010761,0.0211 0.01642,0.0315 0.011318,0.0209 0.023851,0.0416 0.036946,0.0615 0.00654,0.01 0.013016,0.0193 0.020013,0.0289 0.013993,0.0193 0.02884,0.0383 0.044644,0.0563 0.0079,0.009 0.016272,0.0177 0.024631,0.0264 0.00836,0.009 0.016839,0.017 0.025657,0.0253 0,0 0,5.1e-4 0,5.1e-4 0.00882,0.008 0.017917,0.0163 0.027197,0.0243 0.01856,0.016 0.038072,0.0311 0.058498,0.0455 0.010213,0.007 0.020618,0.0144 0.031302,0.0212 0.3403427,0.0735 0.6836406,0.11491 1.0288479,0.13693 0.098631,0.006 0.1971631,0.0111 0.2960824,0.0145 0.09892,0.003 0.1984619,0.005 0.2976216,0.006 0.5453789,0.005 1.0936219,-0.022 1.6415382,-0.0351 0.2988636,-0.007 0.5976557,-0.0101 0.895431,-0.002 0.04963,0.001 0.099233,0.003 0.1488112,0.005 0.1487336,0.006 0.2972427,0.0163 0.4454063,0.03 0.053269,5e-4 0.1079279,0.001 0.1636919,0.002 0.055764,8.8e-4 0.1126332,0.002 0.1698496,0.002 0.030992,-2.5e-4 0.062247,-0.001 0.093392,-0.002 0.1245775,-0.004 0.2492568,-0.0127 0.3689484,-0.0341 0.044884,-0.008 0.089325,-0.0177 0.1323903,-0.0295 0.043065,-0.0118 0.085091,-0.0257 0.1257196,-0.0419 0.040628,-0.0162 0.079937,-0.0346 0.1175092,-0.0558 0.012525,-0.007 0.024807,-0.0145 0.036946,-0.0222 0.036418,-0.0231 0.071115,-0.049 0.1036547,-0.078 0.010846,-0.01 0.021445,-0.0196 0.031814,-0.03 0.01037,-0.0104 0.020405,-0.0209 0.030275,-0.032 0,0 0,-5.1e-4 0,-5.1e-4 0.00978,-0.011 0.019469,-0.0223 0.028736,-0.0341 0,0 0,-5.2e-4 0,-5.2e-4 0.00925,-0.0118 0.018474,-0.0236 0.027196,-0.0362 0,0 0,-5.2e-4 0,-5.2e-4 0.00872,-0.0126 0.017498,-0.0254 0.025657,-0.0388 0,0 0,-5.1e-4 0,-5.1e-4 0.00815,-0.0134 0.016033,-0.0272 0.023604,-0.0413 0,0 0,-5.2e-4 0,-5.2e-4 0.00765,-0.0143 0.015036,-0.0288 0.022065,-0.0439 0.00703,-0.0152 0.014133,-0.0305 0.020526,-0.0465 0,0 0,-5.2e-4 0,-5.2e-4 0.00633,-0.0159 0.012279,-0.0323 0.01796,-0.0491 0,0 0,-5.2e-4 0,-5.2e-4 0.00949,-0.0238 0.018306,-0.0474 0.025657,-0.0708 0,0 0,-5.1e-4 0,-5.1e-4 0.00734,-0.0234 0.013718,-0.0467 0.018986,-0.0698 0,0 0,-5.1e-4 0,-5.1e-4 0.00525,-0.023 0.00956,-0.0456 0.012828,-0.0682 0,0 0,-5.2e-4 0,-5.2e-4 0.00325,-0.0226 0.00533,-0.045 0.00667,-0.0672 0,0 0,-5.2e-4 0,-5.2e-4 6.763e-4,-0.0113 8.355e-4,-0.0224 0.00102,-0.0336 H 10 a 2.4824713,2.49973 0 0 1 0,5.2e-4 2.4824713,2.4993652 0 0 1 -0.010774,0.23046 2.4824713,2.49973 0 0 1 -0.031815,0.22889 2.4824713,2.4993652 0 0 1 -0.05234,0.22426 2.4824713,2.49973 0 0 1 0,5.1e-4 2.4824713,2.4993652 0 0 1 -0.072866,0.21856 2.4824713,2.49973 0 0 1 -0.092366,0.21134 2.4824713,2.49973 0 0 1 -0.2411764,0.39219 2.4824713,2.49973 0 0 1 -1.9812376,0.99259 H 2.5522713 Z" />
    <path
       id="path32229"
       style="fill:#ffff00;stroke-width:0.253387;stop-color:#000000"
       d="m 9.2522719,185.20371 a 2.4824713,1.2835175 0 0 1 -2.3147789,-0.81982 2.4824713,1.2833302 0 0 1 -0.072866,-0.11222 2.4824713,1.2835175 0 0 1 0,-2.6e-4 2.4824713,1.2833302 0 0 1 -0.052854,-0.11515 2.4824713,1.2835175 0 0 1 0,-2.6e-4 2.4824713,1.2835175 0 0 1 -0.031302,-0.11727 2.4824713,1.2833302 0 0 1 -0.010776,-0.11833 2.4824713,1.2835175 0 0 1 0,-2.7e-4 h 1.6153679 c -1.983e-4,0.006 -6.474e-4,0.0111 -5.131e-4,0.0167 0,0 0,2.6e-4 0,2.6e-4 2.941e-4,0.0123 0.00117,0.0247 0.00308,0.0369 0,0 0,2.7e-4 0,2.7e-4 0.00194,0.0123 0.00462,0.0244 0.00821,0.0366 0.00358,0.0122 0.00807,0.0243 0.013342,0.0364 0.00523,0.0119 0.011563,0.0237 0.018473,0.0353 0,0 0,2.7e-4 0,2.7e-4 0.00692,0.0117 0.014982,0.0232 0.023604,0.0345 0,0 0,2.6e-4 0,2.6e-4 0.00864,0.0113 0.017867,0.0223 0.028223,0.0332 0,0 0,2.7e-4 0,2.7e-4 0.00522,0.005 0.010761,0.0108 0.01642,0.0162 0.011318,0.0107 0.023851,0.0214 0.036946,0.0316 0.00654,0.005 0.013016,0.01 0.020013,0.0148 0.013993,0.01 0.02884,0.0197 0.044644,0.0289 0.0079,0.005 0.016272,0.009 0.024631,0.0136 0.00836,0.005 0.016839,0.009 0.025657,0.013 0,0 0,2.7e-4 0,2.7e-4 0.00882,0.004 0.017917,0.008 0.027197,0.0125 0.01856,0.008 0.038072,0.016 0.058498,0.0234 0.010213,0.004 0.020618,0.007 0.031302,0.0109 0.3403432,0.0377 0.6836398,0.059 1.0288478,0.0703 0.09863,0.003 0.1971627,0.006 0.2960814,0.007 0.09892,0.002 0.198462,0.003 0.297622,0.003 0.545379,0.003 1.093622,-0.0113 1.641538,-0.018 0.298864,-0.004 0.597656,-0.005 0.895431,-0.001 0.04963,5.1e-4 0.09923,0.002 0.148811,0.003 0.148734,0.003 0.297243,0.008 0.445406,0.0154 0.05327,2.5e-4 0.107928,5.1e-4 0.163692,0.001 0.05576,4.6e-4 0.112634,0.001 0.16985,0.001 0.03099,-1.3e-4 0.06225,-5.1e-4 0.09339,-0.001 0.124577,-0.002 0.249257,-0.007 0.368948,-0.0175 0.04488,-0.004 0.08933,-0.009 0.132391,-0.0152 0.04307,-0.006 0.08509,-0.0132 0.125719,-0.0215 0.04063,-0.008 0.07994,-0.0178 0.117509,-0.0286 0.01253,-0.004 0.02481,-0.007 0.03695,-0.0114 0.03642,-0.0119 0.07112,-0.0252 0.103655,-0.0401 0.01085,-0.005 0.02144,-0.0101 0.03181,-0.0154 0.01037,-0.005 0.02041,-0.0107 0.03027,-0.0164 0,0 0,-2.6e-4 0,-2.6e-4 0.0098,-0.006 0.01947,-0.0115 0.02874,-0.0175 0,0 0,-2.7e-4 0,-2.7e-4 0.0093,-0.006 0.01847,-0.0121 0.0272,-0.0186 0,0 0,-2.6e-4 0,-2.6e-4 0.0087,-0.006 0.0175,-0.013 0.02566,-0.0199 0,0 0,-2.7e-4 0,-2.7e-4 0.0082,-0.007 0.01603,-0.014 0.0236,-0.0212 0,0 0,-2.7e-4 0,-2.7e-4 0.0076,-0.007 0.01504,-0.0148 0.02206,-0.0225 0.007,-0.008 0.01413,-0.0157 0.02053,-0.0239 0,0 0,-2.6e-4 0,-2.6e-4 0.0063,-0.008 0.01228,-0.0166 0.01796,-0.0252 0,0 0,-2.7e-4 0,-2.7e-4 0.0095,-0.0122 0.01831,-0.0243 0.02566,-0.0363 0,0 0,-2.7e-4 0,-2.7e-4 0.0073,-0.012 0.01372,-0.024 0.01899,-0.0358 0,0 0,-2.6e-4 0,-2.6e-4 0.0053,-0.0118 0.0096,-0.0234 0.01283,-0.035 0,0 0,-2.6e-4 0,-2.6e-4 0.0032,-0.0116 0.0053,-0.0231 0.0067,-0.0345 0,0 0,-2.7e-4 0,-2.7e-4 6.76e-4,-0.006 8.36e-4,-0.0115 10e-4,-0.0172 H 16.7 a 2.4824713,1.2835175 0 0 1 0,2.7e-4 2.4824713,1.2833302 0 0 1 -0.01077,0.11833 2.4824713,1.2835175 0 0 1 -0.03181,0.11753 2.4824713,1.2833302 0 0 1 -0.05234,0.11515 2.4824713,1.2835175 0 0 1 0,2.6e-4 2.4824713,1.2833302 0 0 1 -0.07287,0.11222 2.4824713,1.2835175 0 0 1 -0.09237,0.10852 2.4824713,1.2835175 0 0 1 -0.241176,0.20137 2.4824713,1.2835175 0 0 1 -1.981238,0.50966 H 9.2522729 Z" />
    <circle
       style="fill:#ffff00;fill-opacity:1;stroke:none;stroke-width:0.329196;-inkscape-stroke:none;stop-color:#000000"
       id="path32579"
       cx="31.731625"
       cy="223.7227"
       r="10" />
    <text
       xml:space="preserve"
       transform="matrix(0.26458333,0,0,0.26785714,30.10223,-64.152679)"
       id="text52626"
       style="font-style:normal;font-variant:normal;font-weight:normal;font-stretch:normal;font-size:96px;line-height:1.25;font-family:Ignite;-inkscape-font-specification:'Ignite, Normal';font-variant-ligatures:normal;font-variant-caps:normal;font-variant-numeric:normal;font-variant-east-asian:normal;letter-spacing:9.9387px;word-spacing:0px;white-space:pre;shape-inside:url(#rect1486);fill:#000000;fill-opacity:1;stroke:none"
       inkscape:export-filename="/home/mainadm/Development/Projects/staticweb/quasarweb/charge.png"
       inkscape:export-xdpi="96"
       inkscape:export-ydpi="96"><tspan
         x="-14.150391"
         y="530.70334"
         id="tspan81894">Your</tspan></text>
    <text
       xml:space="preserve"
       transform="matrix(0.26458333,0,0,0.26785714,30.10223,-34.152679)"
       id="text52642"
       style="font-style:normal;font-variant:normal;font-weight:normal;font-stretch:normal;font-size:96px;line-height:1.25;font-family:Ignite;-inkscape-font-specification:'Ignite, Normal';font-variant-ligatures:normal;font-variant-caps:normal;font-variant-numeric:normal;font-variant-east-asian:normal;letter-spacing:9.9387px;word-spacing:0px;white-space:pre;shape-inside:url(#rect1486);fill:#000000;fill-opacity:1;stroke:none"
       inkscape:export-filename="/home/mainadm/Development/Projects/staticweb/quasarweb/charge.png"
       inkscape:export-xdpi="96"
       inkscape:export-ydpi="96"><tspan
         x="-14.150391"
         y="530.70334"
         id="tspan81896">Supply</tspan></text>
    <text
       xml:space="preserve"
       transform="matrix(0.26458333,0,0,0.26785714,30.10223,-4.152679)"
       id="text52634"
       style="font-style:normal;font-variant:normal;font-weight:normal;font-stretch:normal;font-size:96px;line-height:1.25;font-family:Ignite;-inkscape-font-specification:'Ignite, Normal';font-variant-ligatures:normal;font-variant-caps:normal;font-variant-numeric:normal;font-variant-east-asian:normal;letter-spacing:9.9387px;word-spacing:0px;white-space:pre;shape-inside:url(#rect1486);fill:#000000;fill-opacity:1;stroke:none"
       inkscape:export-filename="/home/mainadm/Development/Projects/staticweb/quasarweb/charge.png"
       inkscape:export-xdpi="96"
       inkscape:export-ydpi="96"><tspan
         x="-14.150391"
         y="530.70334"
         id="tspan81898">Chain</tspan></text>
  </g>
  <g
     inkscape:groupmode="layer"
     id="layer2"
     inkscape:label="Layer 2">
    <path
       id="path4360"
       style="fill:#ff00ff;fill-opacity:1;stroke-width:0.0138757;stop-color:#000000"
       d="m 128.1903,102.91529 c 0,-0.53994 -0.27116,-0.97893 -0.60884,-0.99256 -0.009,0.003 -0.0161,0.0171 -0.0161,0.0338 v 0.38604 c 0.0768,2.8e-4 0.15363,0.0401 0.21479,0.11504 0.0853,0.10284 0.14733,0.26798 0.13986,0.44198 0.01,0.98348 0.003,1.96717 0.006,2.95069 1.4e-4,0.0106 2.9e-4,0.0213 9e-5,0.032 -8.5e-4,0.0746 -0.009,0.14892 -0.026,0.21871 -0.0444,0.20073 -0.16818,0.34203 -0.29984,0.36346 -0.0118,0.002 -0.0234,0.004 -0.0351,0.004 v 0.38523 c 0,0.0167 0.007,0.0306 0.0161,0.0338 0.33769,-0.0136 0.60884,-0.45261 0.60884,-0.99255 z" />
    <path
       id="path4366"
       style="fill:#ff00ff;fill-opacity:1;stroke-width:0.0138757;stop-color:#000000"
       d="m 128.1903,94.65638 c 0,-0.539931 -0.27116,-0.978911 -0.60884,-0.992544 -0.009,0.0032 -0.0161,0.0171 -0.0161,0.0338 v 0.386035 c 0.0768,2.84e-4 0.15363,0.04009 0.21479,0.115038 0.0853,0.102841 0.14733,0.267979 0.13986,0.441979 0.01,0.983467 0.003,1.967143 0.006,2.95065 1.4e-4,0.01065 2.9e-4,0.02132 9e-5,0.03197 -8.5e-4,0.07457 -0.009,0.148919 -0.026,0.218717 -0.0444,0.200726 -0.16818,0.342023 -0.29984,0.363451 -0.0118,0.0025 -0.0234,0.0037 -0.0351,0.004 v 0.385228 c 0,0.0167 0.007,0.0306 0.0161,0.0338 0.33769,-0.01363 0.60884,-0.452614 0.60884,-0.992544 z" />
    <path
       id="path4376"
       style="fill:#ff00ff;fill-opacity:1;stroke-width:0.0138757;stop-color:#000000"
       d="m 128.19026,135.83011 c 0,-0.53993 -0.27116,-0.97891 -0.60884,-0.99255 -0.009,0.003 -0.0161,0.0171 -0.0161,0.0338 v 0.38604 c 0.0768,2.8e-4 0.15363,0.0401 0.21479,0.11504 0.0853,0.10284 0.14732,0.26798 0.13986,0.44198 0.01,0.98347 0.003,1.96715 0.006,2.95067 1.4e-4,0.0106 2.8e-4,0.0213 8e-5,0.032 -8.5e-4,0.0746 -0.009,0.14892 -0.026,0.21871 -0.0444,0.20073 -0.16817,0.34203 -0.29983,0.36346 -0.0118,0.002 -0.0234,0.004 -0.0351,0.004 v 0.38522 c 0,0.0167 0.007,0.0306 0.0161,0.0338 0.33768,-0.0136 0.60884,-0.45261 0.60884,-0.99254 z" />
    <path
       id="path4400"
       style="fill:#ff00ff;fill-opacity:1;stroke-width:0.0138757;stop-color:#000000"
       d="m 128.19026,127.57119 c 0,-0.53993 -0.27116,-0.97891 -0.60884,-0.99255 -0.009,0.003 -0.0161,0.0171 -0.0161,0.0338 v 0.38604 c 0.0768,2.9e-4 0.15363,0.0401 0.21479,0.11504 0.0853,0.10284 0.14732,0.26798 0.13986,0.44198 0.01,0.98347 0.003,1.96715 0.006,2.95067 1.4e-4,0.0106 2.8e-4,0.0213 8e-5,0.032 -8.5e-4,0.0746 -0.009,0.14892 -0.026,0.21872 -0.0444,0.20072 -0.16817,0.34202 -0.29983,0.36345 -0.0118,0.002 -0.0234,0.004 -0.0351,0.004 v 0.38523 c 0,0.0167 0.007,0.0306 0.0161,0.0338 0.33768,-0.0136 0.60884,-0.45262 0.60884,-0.99255 z" />
    <path
       id="path4380"
       style="fill:#ff00ff;fill-opacity:1;stroke-width:0.0138757;stop-color:#000000"
       d="m 128.19026,119.42586 c 0,-0.53993 -0.27116,-0.97892 -0.60884,-0.99255 -0.009,0.003 -0.0161,0.0171 -0.0161,0.0338 v 0.38603 c 0.0768,2.9e-4 0.15363,0.0401 0.21479,0.11504 0.0853,0.10285 0.14732,0.26798 0.13986,0.44198 0.01,0.98348 0.003,1.96717 0.006,2.95069 1.4e-4,0.0106 2.8e-4,0.0213 8e-5,0.032 -8.5e-4,0.0746 -0.009,0.14892 -0.026,0.21872 -0.0444,0.20073 -0.16817,0.34203 -0.29983,0.36345 -0.0118,0.002 -0.0234,0.004 -0.0351,0.004 v 0.38524 c 0,0.0167 0.007,0.0306 0.0161,0.0338 0.33768,-0.0136 0.60884,-0.45262 0.60884,-0.99256 z" />
    <path
       id="path4386"
       style="fill:#ff00ff;fill-opacity:1;stroke-width:0.0138757;stop-color:#000000"
       d="m 128.19026,111.16692 c 0,-0.53993 -0.27116,-0.97891 -0.60884,-0.99255 -0.009,0.003 -0.0161,0.0171 -0.0161,0.0338 v 0.38604 c 0.0768,2.9e-4 0.15363,0.0401 0.21479,0.11504 0.0853,0.10284 0.14732,0.26798 0.13986,0.44198 0.01,0.98347 0.003,1.96715 0.006,2.95067 1.4e-4,0.0106 2.8e-4,0.0213 8e-5,0.032 -8.5e-4,0.0746 -0.009,0.14892 -0.026,0.21872 -0.0444,0.20072 -0.16817,0.34202 -0.29983,0.36345 -0.0118,0.002 -0.0234,0.004 -0.0351,0.004 v 0.38523 c 0,0.0167 0.007,0.0306 0.0161,0.0338 0.33768,-0.0136 0.60884,-0.45262 0.60884,-0.99255 z" />
    <path
       id="path4159"
       style="fill:#ff00ff;fill-opacity:1;stroke-width:0.0138757;stop-color:#000000"
       d="m 128.1903,86.511096 c 0,-0.539933 -0.27116,-0.978917 -0.60884,-0.99255 -0.009,0.0032 -0.0161,0.0171 -0.0161,0.0338 v 0.386036 c 0.0768,2.83e-4 0.15363,0.04009 0.21479,0.115037 0.0853,0.102841 0.14733,0.267979 0.13986,0.44198 0.01,0.983473 0.003,1.967155 0.006,2.950669 1.4e-4,0.01065 2.9e-4,0.02132 9e-5,0.03197 -8.5e-4,0.07457 -0.009,0.148921 -0.026,0.218717 -0.0444,0.200727 -0.16818,0.342026 -0.29984,0.363453 -0.0118,0.0025 -0.0234,0.0037 -0.0351,0.004 v 0.385228 c 0,0.0167 0.007,0.03059 0.0161,0.0338 0.33769,-0.01363 0.60884,-0.452615 0.60884,-0.992549 z" />
    <path
       id="path4165"
       style="fill:#ff00ff;fill-opacity:1;stroke-width:0.0138757;stop-color:#000000"
       d="m 128.1903,78.252203 c 0,-0.539931 -0.27116,-0.978911 -0.60884,-0.992544 -0.009,0.0032 -0.0161,0.0171 -0.0161,0.0338 v 0.386035 c 0.0768,2.84e-4 0.15363,0.04009 0.21479,0.115038 0.0853,0.102841 0.14733,0.267979 0.13986,0.441979 0.01,0.983467 0.003,1.967143 0.006,2.95065 1.4e-4,0.01065 2.9e-4,0.02132 9e-5,0.03197 -8.5e-4,0.07457 -0.009,0.148919 -0.026,0.218717 -0.0444,0.200726 -0.16818,0.342023 -0.29984,0.363451 -0.0118,0.0025 -0.0234,0.0037 -0.0351,0.004 v 0.385228 c 0,0.0167 0.007,0.0306 0.0161,0.0338 0.33769,-0.01363 0.60884,-0.452614 0.60884,-0.992544 z" />
    <g
       id="g36165"
       transform="rotate(90,62.16884,118.1471)">
      <path
         id="path4390"
         style="fill:#9b009b;fill-opacity:1;stroke-width:0.0181061;stop-color:#000000"
         d="m 51.062762,51.686534 c -0.53993,0 -0.978912,0.461706 -0.992545,1.036677 0.0032,0.01572 0.0171,0.0275 0.0338,0.0275 h 0.386034 c 2.83e-4,-0.130791 0.04008,-0.261587 0.115037,-0.365722 0.102841,-0.14522 0.267978,-0.250852 0.441977,-0.238145 0.983468,-0.01704 1.967144,-0.0042 2.950652,-0.01065 0.01065,-2.83e-4 0.02132,-4.26e-4 0.03197,-1.41e-4 0.07457,0.0015 0.14892,0.0159 0.218716,0.04429 0.200726,0.07568 0.342025,0.286352 0.363451,0.510531 0.0025,0.01997 0.0037,0.03992 0.004,0.05983 h 0.385228 c 0.0167,0 0.0306,-0.01176 0.0338,-0.0275 -0.01363,-0.574971 -0.452614,-1.036677 -0.992546,-1.036677 z" />
      <path
         id="path4362"
         style="fill:#9b009b;fill-opacity:1;stroke-width:0.0181061;stop-color:#000000"
         d="m 42.81115,51.68649 c -0.539933,0 -0.978915,0.461706 -0.992548,1.036677 0.0032,0.01572 0.0171,0.0275 0.0338,0.0275 h 0.386032 c 2.85e-4,-0.130791 0.04009,-0.261587 0.115038,-0.365722 0.102841,-0.14522 0.267979,-0.250852 0.44198,-0.238145 0.983473,-0.01704 1.967154,-0.0042 2.950669,-0.01065 0.01065,-2.83e-4 0.02132,-4.26e-4 0.03197,-1.41e-4 0.07457,0.0015 0.14892,0.0159 0.218718,0.04429 0.200726,0.07568 0.342025,0.286354 0.363452,0.510531 0.0025,0.01997 0.0037,0.03992 0.004,0.05983 h 0.385231 c 0.0167,0 0.03059,-0.01176 0.0338,-0.0275 -0.01363,-0.574972 -0.452617,-1.036677 -0.99255,-1.036677 z" />
      <path
         id="path4459"
         style="fill:#9b009b;fill-opacity:1;stroke-width:0.0181061;stop-color:#000000"
         d="m 83.977427,51.686477 c -0.539933,0 -0.978915,0.461706 -0.992548,1.036677 0.0032,0.01572 0.0171,0.0275 0.0338,0.0275 h 0.386032 c 2.85e-4,-0.130791 0.04009,-0.261587 0.115038,-0.365722 0.102841,-0.14522 0.267979,-0.250852 0.44198,-0.238145 0.983473,-0.01704 1.967154,-0.0042 2.950669,-0.01065 0.01065,-2.83e-4 0.02132,-4.26e-4 0.03197,-1.41e-4 0.07457,0.0015 0.14892,0.0159 0.218718,0.04429 0.200726,0.07568 0.342025,0.286354 0.363452,0.510531 0.0025,0.01997 0.0037,0.03992 0.004,0.05983 h 0.385231 c 0.0167,0 0.03059,-0.01176 0.0338,-0.0275 -0.01363,-0.574972 -0.452617,-1.036677 -0.99255,-1.036677 z" />
      <path
         id="path4396"
         style="fill:#9b009b;fill-opacity:1;stroke-width:0.0181061;stop-color:#000000"
         d="m 75.725808,51.686534 c -0.539933,0 -0.978915,0.461706 -0.992548,1.036677 0.0032,0.01572 0.0171,0.0275 0.0338,0.0275 h 0.386032 c 2.85e-4,-0.130791 0.04009,-0.261587 0.115038,-0.365722 0.102841,-0.14522 0.267979,-0.250852 0.44198,-0.238145 0.983473,-0.01704 1.967154,-0.0042 2.950669,-0.01065 0.01065,-2.83e-4 0.02132,-4.26e-4 0.03197,-1.41e-4 0.07457,0.0015 0.14892,0.0159 0.218718,0.04429 0.200726,0.07568 0.342025,0.286354 0.363452,0.510531 0.0025,0.01997 0.0037,0.03992 0.004,0.05983 h 0.385231 c 0.0167,0 0.03059,-0.01176 0.0338,-0.0275 -0.01363,-0.574972 -0.452617,-1.036677 -0.99255,-1.036677 z" />
      <path
         id="path4378"
         style="fill:#9b009b;fill-opacity:1;stroke-width:0.0181061;stop-color:#000000"
         d="m 67.466939,51.686534 c -0.53993,0 -0.978912,0.461706 -0.992545,1.036677 0.0032,0.01572 0.0171,0.0275 0.0338,0.0275 h 0.386034 c 2.83e-4,-0.130791 0.04008,-0.261587 0.115037,-0.365722 0.102841,-0.14522 0.267978,-0.250852 0.441977,-0.238145 0.983468,-0.01704 1.967144,-0.0042 2.950652,-0.01065 0.01065,-2.83e-4 0.02132,-4.26e-4 0.03197,-1.41e-4 0.07457,0.0015 0.14892,0.0159 0.218716,0.04429 0.200726,0.07568 0.342025,0.286352 0.363451,0.510531 0.0025,0.01997 0.0037,0.03992 0.004,0.05983 h 0.385228 c 0.0167,0 0.0306,-0.01176 0.0338,-0.0275 -0.01363,-0.574971 -0.452614,-1.036677 -0.992546,-1.036677 z" />
      <path
         id="path4382"
         style="fill:#9b009b;fill-opacity:1;stroke-width:0.0181061;stop-color:#000000"
         d="m 59.321631,51.686534 c -0.539933,0 -0.978915,0.461706 -0.992548,1.036677 0.0032,0.01572 0.0171,0.0275 0.0338,0.0275 h 0.386032 c 2.85e-4,-0.130791 0.04009,-0.261587 0.115038,-0.365722 0.102841,-0.14522 0.267979,-0.250852 0.44198,-0.238145 0.983473,-0.01704 1.967154,-0.0042 2.950669,-0.01065 0.01065,-2.83e-4 0.02132,-4.26e-4 0.03197,-1.41e-4 0.07457,0.0015 0.14892,0.0159 0.218718,0.04429 0.200726,0.07568 0.342025,0.286354 0.363452,0.510531 0.0025,0.01997 0.0037,0.03992 0.004,0.05983 h 0.385231 c 0.0167,0 0.03059,-0.01176 0.0338,-0.0275 -0.01363,-0.574972 -0.452617,-1.036677 -0.99255,-1.036677 z" />
      <path
         id="path4370"
         style="fill:#9b009b;fill-opacity:1;stroke-width:0.0181061;stop-color:#000000"
         d="m 34.552281,51.68649 c -0.53993,0 -0.978912,0.461706 -0.992545,1.036677 0.0032,0.01572 0.0171,0.0275 0.0338,0.0275 h 0.386034 c 2.83e-4,-0.130791 0.04008,-0.261587 0.115037,-0.365722 0.102841,-0.14522 0.267978,-0.250852 0.441977,-0.238145 0.983468,-0.01704 1.967144,-0.0042 2.950652,-0.01065 0.01065,-2.83e-4 0.02132,-4.26e-4 0.03197,-1.41e-4 0.07457,0.0015 0.14892,0.0159 0.218716,0.04429 0.200726,0.07568 0.342025,0.286352 0.363451,0.510531 0.0025,0.01997 0.0037,0.03992 0.004,0.05983 h 0.385228 c 0.0167,0 0.0306,-0.01176 0.0338,-0.0275 -0.01363,-0.574971 -0.452614,-1.036677 -0.992546,-1.036677 z" />
      <path
         id="path4161"
         style="fill:#9b009b;fill-opacity:1;stroke-width:0.0181061;stop-color:#000000"
         d="m 26.406973,51.68649 c -0.539933,0 -0.978915,0.461706 -0.992548,1.036677 0.0032,0.01572 0.0171,0.0275 0.0338,0.0275 h 0.386032 c 2.85e-4,-0.130791 0.04009,-0.261587 0.115038,-0.365722 0.102841,-0.14522 0.267979,-0.250852 0.44198,-0.238145 0.983473,-0.01704 1.967154,-0.0042 2.950669,-0.01065 0.01065,-2.83e-4 0.02132,-4.26e-4 0.03197,-1.41e-4 0.07457,0.0015 0.14892,0.0159 0.218718,0.04429 0.200726,0.07568 0.342025,0.286354 0.363452,0.510531 0.0025,0.01997 0.0037,0.03992 0.004,0.05983 h 0.385231 c 0.0167,0 0.03059,-0.01176 0.0338,-0.0275 -0.01363,-0.574972 -0.452617,-1.036677 -0.99255,-1.036677 z" />
      <path
         id="path4163"
         style="fill:#9b009b;fill-opacity:1;stroke-width:0.0181061;stop-color:#000000"
         d="m 18.148103,53.81484 c -0.539931,0 -0.978911,-0.461706 -0.992544,-1.036677 0.0032,-0.01572 0.0171,-0.0275 0.0338,-0.0275 h 0.386034 c 2.84e-4,0.130791 0.04009,0.261588 0.115037,0.365722 0.102841,0.145219 0.267979,0.250851 0.441977,0.238144 0.983469,0.01704 1.967145,0.0042 2.950652,0.01065 0.01065,2.84e-4 0.02132,4.26e-4 0.03197,1.43e-4 0.07457,-0.0015 0.14892,-0.0159 0.218717,-0.04429 0.200726,-0.07568 0.342024,-0.286354 0.363451,-0.510529 0.0025,-0.01997 0.0037,-0.03992 0.004,-0.05983 h 0.385228 c 0.0167,0 0.0306,0.01176 0.0338,0.0275 -0.01363,0.574973 -0.452614,1.036678 -0.992544,1.036678 z" />
      <path
         id="path4169"
         style="fill:#9b009b;fill-opacity:1;stroke-width:0.0181061;stop-color:#000000"
         d="m 18.148104,51.68649 c -0.53993,0 -0.978912,0.461706 -0.992545,1.036677 0.0032,0.01572 0.0171,0.0275 0.0338,0.0275 h 0.386034 c 2.83e-4,-0.130791 0.04008,-0.261587 0.115037,-0.365722 0.102841,-0.14522 0.267978,-0.250852 0.441977,-0.238145 0.983468,-0.01704 1.967144,-0.0042 2.950652,-0.01065 0.01065,-2.83e-4 0.02132,-4.26e-4 0.03197,-1.41e-4 0.07457,0.0015 0.14892,0.0159 0.218716,0.04429 0.200726,0.07568 0.342025,0.286352 0.363451,0.510531 0.0025,0.01997 0.0037,0.03992 0.004,0.05983 h 0.385228 c 0.0167,0 0.0306,-0.01176 0.0338,-0.0275 -0.01363,-0.574971 -0.452614,-1.036677 -0.992546,-1.036677 z" />
      <path
         id="path4171"
         style="fill:#9b009b;fill-opacity:1;stroke-width:0.0181061;stop-color:#000000"
         d="m 26.406973,53.81484 c -0.539935,0 -0.978915,-0.461706 -0.992548,-1.036677 0.0032,-0.01572 0.0171,-0.0275 0.0338,-0.0275 h 0.386034 c 2.84e-4,0.130791 0.04009,0.261588 0.115037,0.365722 0.102841,0.145219 0.267979,0.250851 0.44198,0.238144 0.983473,0.01704 1.967155,0.0042 2.950669,0.01065 0.01065,2.84e-4 0.02131,4.26e-4 0.03197,1.43e-4 0.07457,-0.0015 0.148919,-0.0159 0.218717,-0.04429 0.200727,-0.07568 0.342026,-0.286354 0.363453,-0.510529 0.0025,-0.01997 0.0037,-0.03992 0.004,-0.05983 h 0.385229 c 0.0167,0 0.03061,0.01176 0.0338,0.0275 -0.01363,0.574973 -0.452615,1.036678 -0.99255,1.036678 z" />
      <path
         id="path4364"
         style="fill:#9b009b;fill-opacity:1;stroke-width:0.0181061;stop-color:#000000"
         d="m 34.55228,53.81484 c -0.539931,0 -0.978911,-0.461706 -0.992544,-1.036677 0.0032,-0.01572 0.0171,-0.0275 0.0338,-0.0275 h 0.386034 c 2.84e-4,0.130791 0.04009,0.261588 0.115037,0.365722 0.102841,0.145219 0.267979,0.250851 0.441977,0.238144 0.983469,0.01704 1.967145,0.0042 2.950652,0.01065 0.01065,2.84e-4 0.02132,4.26e-4 0.03197,1.43e-4 0.07457,-0.0015 0.14892,-0.0159 0.218717,-0.04429 0.200726,-0.07568 0.342024,-0.286354 0.363451,-0.510529 0.0025,-0.01997 0.0037,-0.03992 0.004,-0.05983 h 0.385228 c 0.0167,0 0.0306,0.01176 0.0338,0.0275 -0.01363,0.574973 -0.452614,1.036678 -0.992544,1.036678 z" />
      <path
         id="path4372"
         style="fill:#9b009b;fill-opacity:1;stroke-width:0.0181061;stop-color:#000000"
         d="m 42.81115,53.81484 c -0.539935,0 -0.978915,-0.461706 -0.992548,-1.036677 0.0032,-0.01572 0.0171,-0.0275 0.0338,-0.0275 h 0.386034 c 2.84e-4,0.130791 0.04009,0.261588 0.115037,0.365722 0.102841,0.145219 0.267979,0.250851 0.44198,0.238144 0.983473,0.01704 1.967155,0.0042 2.950669,0.01065 0.01065,2.84e-4 0.02131,4.26e-4 0.03197,1.43e-4 0.07457,-0.0015 0.148919,-0.0159 0.218717,-0.04429 0.200727,-0.07568 0.342026,-0.286354 0.363453,-0.510529 0.0025,-0.01997 0.0037,-0.03992 0.004,-0.05983 h 0.385229 c 0.0167,0 0.03061,0.01176 0.0338,0.0275 -0.01363,0.574973 -0.452615,1.036678 -0.99255,1.036678 z" />
      <path
         id="path4384"
         style="fill:#9b009b;fill-opacity:1;stroke-width:0.0181061;stop-color:#000000"
         d="m 51.062761,53.814884 c -0.539931,0 -0.978911,-0.461706 -0.992544,-1.036677 0.0032,-0.01572 0.0171,-0.0275 0.0338,-0.0275 h 0.386034 c 2.84e-4,0.130791 0.04009,0.261588 0.115037,0.365722 0.102841,0.145219 0.267979,0.250851 0.441977,0.238144 0.983469,0.01704 1.967145,0.0042 2.950652,0.01065 0.01065,2.84e-4 0.02132,4.26e-4 0.03197,1.43e-4 0.07457,-0.0015 0.14892,-0.0159 0.218717,-0.04429 0.200726,-0.07568 0.342024,-0.286354 0.363451,-0.510529 0.0025,-0.01997 0.0037,-0.03992 0.004,-0.05983 h 0.385228 c 0.0167,0 0.0306,0.01176 0.0338,0.0275 -0.01363,0.574973 -0.452614,1.036678 -0.992544,1.036678 z" />
      <path
         id="path4392"
         style="fill:#9b009b;fill-opacity:1;stroke-width:0.0181061;stop-color:#000000"
         d="m 59.321631,53.814884 c -0.539935,0 -0.978915,-0.461706 -0.992548,-1.036677 0.0032,-0.01572 0.0171,-0.0275 0.0338,-0.0275 h 0.386034 c 2.84e-4,0.130791 0.04009,0.261588 0.115037,0.365722 0.102841,0.145219 0.267979,0.250851 0.44198,0.238144 0.983473,0.01704 1.967155,0.0042 2.950669,0.01065 0.01065,2.84e-4 0.02131,4.26e-4 0.03197,1.43e-4 0.07457,-0.0015 0.148919,-0.0159 0.218717,-0.04429 0.200727,-0.07568 0.342026,-0.286354 0.363453,-0.510529 0.0025,-0.01997 0.0037,-0.03992 0.004,-0.05983 h 0.385229 c 0.0167,0 0.03061,0.01176 0.0338,0.0275 -0.01363,0.574973 -0.452615,1.036678 -0.99255,1.036678 z" />
      <path
         id="path4398"
         style="fill:#9b009b;fill-opacity:1;stroke-width:0.0181061;stop-color:#000000"
         d="m 67.466938,53.814884 c -0.539931,0 -0.978911,-0.461706 -0.992544,-1.036677 0.0032,-0.01572 0.0171,-0.0275 0.0338,-0.0275 h 0.386034 c 2.84e-4,0.130791 0.04009,0.261588 0.115037,0.365722 0.102841,0.145219 0.267979,0.250851 0.441977,0.238144 0.983469,0.01704 1.967145,0.0042 2.950652,0.01065 0.01065,2.84e-4 0.02132,4.26e-4 0.03197,1.43e-4 0.07457,-0.0015 0.14892,-0.0159 0.218717,-0.04429 0.200726,-0.07568 0.342024,-0.286354 0.363451,-0.510529 0.0025,-0.01997 0.0037,-0.03992 0.004,-0.05983 h 0.385228 c 0.0167,0 0.0306,0.01176 0.0338,0.0275 -0.01363,0.574973 -0.452614,1.036678 -0.992544,1.036678 z" />
      <path
         id="path4404"
         style="fill:#9b009b;fill-opacity:1;stroke-width:0.0181061;stop-color:#000000"
         d="m 75.725808,53.814884 c -0.539935,0 -0.978915,-0.461706 -0.992548,-1.036677 0.0032,-0.01572 0.0171,-0.0275 0.0338,-0.0275 h 0.386034 c 2.84e-4,0.130791 0.04009,0.261588 0.115037,0.365722 0.102841,0.145219 0.267979,0.250851 0.44198,0.238144 0.983473,0.01704 1.967155,0.0042 2.950669,0.01065 0.01065,2.84e-4 0.02131,4.26e-4 0.03197,1.43e-4 0.07457,-0.0015 0.148919,-0.0159 0.218717,-0.04429 0.200727,-0.07568 0.342026,-0.286354 0.363453,-0.510529 0.0025,-0.01997 0.0037,-0.03992 0.004,-0.05983 h 0.385229 c 0.0167,0 0.03061,0.01176 0.0338,0.0275 -0.01363,0.574973 -0.452615,1.036678 -0.99255,1.036678 z" />
      <path
         id="path4461"
         style="fill:#9b009b;fill-opacity:1;stroke-width:0.0181061;stop-color:#000000"
         d="m 83.977427,53.814827 c -0.539935,0 -0.978915,-0.461706 -0.992548,-1.036677 0.0032,-0.01572 0.0171,-0.0275 0.0338,-0.0275 h 0.386034 c 2.84e-4,0.130791 0.04009,0.261588 0.115037,0.365722 0.102841,0.145219 0.267979,0.250851 0.44198,0.238144 0.983473,0.01704 1.967155,0.0042 2.950669,0.01065 0.01065,2.84e-4 0.02131,4.26e-4 0.03197,1.43e-4 0.07457,-0.0015 0.148919,-0.0159 0.218717,-0.04429 0.200727,-0.07568 0.342026,-0.286354 0.363453,-0.510529 0.0025,-0.01997 0.0037,-0.03992 0.004,-0.05983 h 0.385229 c 0.0167,0 0.03061,0.01176 0.0338,0.0275 -0.01363,0.574973 -0.452615,1.036678 -0.99255,1.036678 z" />
    </g>
    <path
       id="path4167"
       style="fill:#ff00ff;fill-opacity:1;stroke-width:0.0138757;stop-color:#000000"
       d="m 126.94032,78.252203 c 0,-0.539931 0.27117,-0.978911 0.60885,-0.992544 0.009,0.0032 0.0162,0.0171 0.0162,0.0338 v 0.386034 c -0.0768,2.84e-4 -0.15363,0.04009 -0.21479,0.115037 -0.0853,0.102842 -0.14733,0.267979 -0.13987,0.441978 -0.01,0.983468 -0.002,1.967144 -0.006,2.950652 -1.4e-4,0.01065 -2.8e-4,0.02132 -8e-5,0.03197 8.5e-4,0.07457 0.009,0.148919 0.026,0.218715 0.0444,0.200727 0.16818,0.342025 0.29983,0.363453 0.0118,0.0025 0.0234,0.0037 0.0351,0.004 v 0.385228 c 0,0.0167 -0.007,0.03059 -0.0161,0.0338 -0.33767,-0.01363 -0.60883,-0.452613 -0.60883,-0.992544 z" />
    <path
       id="path4173"
       style="fill:#ff00ff;fill-opacity:1;stroke-width:0.0138757;stop-color:#000000"
       d="m 126.94032,86.511096 c 0,-0.539934 0.27117,-0.978917 0.60885,-0.99255 0.009,0.0032 0.0162,0.0171 0.0162,0.0338 v 0.386037 c -0.0768,2.83e-4 -0.15363,0.04008 -0.21479,0.115037 -0.0853,0.102841 -0.14733,0.267979 -0.13987,0.44198 -0.01,0.983472 -0.002,1.967155 -0.006,2.950669 -1.4e-4,0.01065 -2.8e-4,0.02131 -8e-5,0.03197 8.5e-4,0.07457 0.009,0.148918 0.026,0.218716 0.0444,0.200729 0.16818,0.342027 0.29983,0.363455 0.0118,0.0025 0.0234,0.0037 0.0351,0.004 v 0.385228 c 0,0.0167 -0.007,0.03059 -0.0161,0.0338 -0.33767,-0.01363 -0.60883,-0.452614 -0.60883,-0.992549 z" />
    <path
       id="path4368"
       style="fill:#ff00ff;fill-opacity:1;stroke-width:0.0138757;stop-color:#000000"
       d="m 126.94032,94.65638 c 0,-0.539931 0.27117,-0.978911 0.60885,-0.992544 0.009,0.0032 0.0162,0.0171 0.0162,0.0338 v 0.386034 c -0.0768,2.84e-4 -0.15363,0.04009 -0.21479,0.115037 -0.0853,0.102842 -0.14733,0.267979 -0.13987,0.441978 -0.01,0.983468 -0.002,1.967144 -0.006,2.950652 -1.4e-4,0.01065 -2.8e-4,0.02132 -8e-5,0.03197 8.5e-4,0.07457 0.009,0.148919 0.026,0.218715 0.0444,0.200727 0.16818,0.342025 0.29983,0.363453 0.0118,0.0025 0.0234,0.0037 0.0351,0.004 v 0.385228 c 0,0.0167 -0.007,0.03059 -0.0161,0.0338 -0.33767,-0.01363 -0.60883,-0.452613 -0.60883,-0.992544 z" />
    <path
       id="path4374"
       style="fill:#ff00ff;fill-opacity:1;stroke-width:0.0138757;stop-color:#000000"
       d="m 126.94032,102.91529 c 0,-0.53994 0.27117,-0.97893 0.60885,-0.99256 0.009,0.003 0.0162,0.0171 0.0162,0.0338 v 0.38604 c -0.0768,2.8e-4 -0.15363,0.0401 -0.21479,0.11504 -0.0853,0.10284 -0.14733,0.26798 -0.13987,0.44198 -0.01,0.98348 -0.002,1.96717 -0.006,2.95069 -1.4e-4,0.0106 -2.8e-4,0.0213 -8e-5,0.032 8.5e-4,0.0746 0.009,0.14892 0.026,0.21871 0.0444,0.20073 0.16818,0.34203 0.29983,0.36346 0.0118,0.002 0.0234,0.004 0.0351,0.004 v 0.38523 c 0,0.0167 -0.007,0.0306 -0.0161,0.0338 -0.33767,-0.0136 -0.60883,-0.45261 -0.60883,-0.99255 z" />
    <path
       id="path4388"
       style="fill:#ff00ff;fill-opacity:1;stroke-width:0.0138757;stop-color:#000000"
       d="m 126.94028,111.16692 c 0,-0.53993 0.27116,-0.97891 0.60884,-0.99255 0.009,0.003 0.0161,0.0171 0.0161,0.0338 v 0.38604 c -0.0768,2.8e-4 -0.15363,0.0401 -0.21479,0.11504 -0.0853,0.10284 -0.14732,0.26798 -0.13986,0.44198 -0.01,0.98347 -0.002,1.96715 -0.006,2.95067 -1.4e-4,0.0106 -2.8e-4,0.0213 -8e-5,0.032 8.5e-4,0.0746 0.009,0.14891 0.026,0.21871 0.0444,0.20073 0.16817,0.34203 0.29983,0.36346 0.0118,0.002 0.0234,0.004 0.0351,0.004 v 0.38523 c 0,0.0167 -0.007,0.0306 -0.0162,0.0338 -0.33768,-0.0136 -0.60884,-0.45262 -0.60884,-0.99255 z" />
    <path
       id="path4394"
       style="fill:#ff00ff;fill-opacity:1;stroke-width:0.0138757;stop-color:#000000"
       d="m 126.94028,119.42586 c 0,-0.53994 0.27116,-0.97892 0.60884,-0.99255 0.009,0.003 0.0161,0.0171 0.0161,0.0338 v 0.38604 c -0.0768,2.8e-4 -0.15363,0.0401 -0.21479,0.11503 -0.0853,0.10285 -0.14732,0.26798 -0.13986,0.44199 -0.01,0.98347 -0.002,1.96716 -0.006,2.95068 -1.4e-4,0.0106 -2.8e-4,0.0213 -8e-5,0.032 8.5e-4,0.0746 0.009,0.14892 0.026,0.21872 0.0444,0.20073 0.16817,0.34203 0.29983,0.36346 0.0118,0.002 0.0234,0.004 0.0351,0.004 v 0.38523 c 0,0.0167 -0.007,0.0306 -0.0162,0.0338 -0.33768,-0.0136 -0.60884,-0.45262 -0.60884,-0.99256 z" />
    <path
       id="path4402"
       style="fill:#ff00ff;fill-opacity:1;stroke-width:0.0138757;stop-color:#000000"
       d="m 126.94028,127.57119 c 0,-0.53993 0.27116,-0.97891 0.60884,-0.99255 0.009,0.003 0.0161,0.0171 0.0161,0.0338 v 0.38604 c -0.0768,2.8e-4 -0.15363,0.0401 -0.21479,0.11504 -0.0853,0.10284 -0.14732,0.26798 -0.13986,0.44198 -0.01,0.98347 -0.002,1.96715 -0.006,2.95067 -1.4e-4,0.0106 -2.8e-4,0.0213 -8e-5,0.032 8.5e-4,0.0746 0.009,0.14891 0.026,0.21871 0.0444,0.20073 0.16817,0.34203 0.29983,0.36346 0.0118,0.002 0.0234,0.004 0.0351,0.004 v 0.38523 c 0,0.0167 -0.007,0.0306 -0.0162,0.0338 -0.33768,-0.0136 -0.60884,-0.45262 -0.60884,-0.99255 z" />
    <path
       id="path4406"
       style="fill:#ff00ff;fill-opacity:1;stroke-width:0.0138757;stop-color:#000000"
       d="m 126.94028,135.83011 c 0,-0.53993 0.27116,-0.97891 0.60884,-0.99255 0.009,0.003 0.0161,0.0171 0.0161,0.0338 v 0.38604 c -0.0768,2.8e-4 -0.15363,0.0401 -0.21479,0.11504 -0.0853,0.10284 -0.14732,0.26798 -0.13986,0.44198 -0.01,0.98347 -0.002,1.96715 -0.006,2.95067 -1.4e-4,0.0106 -2.8e-4,0.0213 -8e-5,0.032 8.5e-4,0.0746 0.009,0.14892 0.026,0.21871 0.0444,0.20073 0.16817,0.34203 0.29983,0.36346 0.0118,0.002 0.0234,0.004 0.0351,0.004 v 0.38523 c 0,0.0167 -0.007,0.0306 -0.0162,0.0338 -0.33768,-0.0136 -0.60884,-0.45262 -0.60884,-0.99255 z" />
  </g>
</svg>
